<svg width="24" height="24" viewBox="0 0 24 24" fill="none" xmlns="http://www.w3.org/2000/svg">
<g clip-path="url(#clip0_8395_6590)">
<path d="M0.0468751 13.7564C0.0766673 13.7211 0.125491 13.7148 0.133524 13.6934C0.550034 12.5796 1.41668 11.9669 2.48485 11.5816C3.09196 11.3626 3.71905 11.2592 4.40046 11.3041C4.19361 10.8504 3.79421 10.9599 3.44043 10.9072C3.44043 10.6782 3.44043 10.4411 3.44043 10.1764C3.84608 10.1882 4.26762 10.0828 4.63454 10.3675C4.78821 10.1887 4.926 10.0154 5.07727 9.85475C5.51423 9.39077 6.08233 9.17993 6.69117 9.10235C7.15116 9.04373 7.62847 9.00416 8.0845 9.0624C8.60117 9.12839 9.10755 9.29731 9.60859 9.45305C9.83308 9.52282 9.86903 9.86879 9.71518 10.1346C9.26576 10.911 8.57567 11.3835 7.73422 11.6991C8.94551 12.3434 9.91006 13.1509 9.79044 14.7299C9.52112 14.706 9.27151 14.6838 9.06561 14.6655C8.98986 14.3304 8.96703 13.9989 8.83995 13.7139C8.55122 13.0663 7.98463 12.6958 7.35771 12.4293C6.82574 12.2032 6.26477 12.0841 5.67883 12.0901C5.31491 12.0938 4.95007 12.0414 4.58663 12.0512C3.75374 12.0736 2.92812 12.1705 2.18209 12.5755C1.57576 12.9047 1.03488 13.3282 0.887891 14.0507C0.817258 14.3979 0.812875 14.772 0.853285 15.1254C0.928043 15.7791 1.09304 16.416 1.40441 17.005C1.42188 17.0381 1.44524 17.068 1.46537 17.0987C2.00421 16.4407 2.6669 15.9986 3.50622 15.8436C3.53624 15.838 3.56664 15.8342 3.59635 15.8273C3.65239 15.8144 4.34385 15.2961 4.3768 15.2438C4.77601 14.6106 5.32877 14.2542 6.09839 14.2977C6.54433 14.3229 7.00538 14.2941 7.43181 14.4007C8.05504 14.5566 8.43504 15.0258 8.61729 15.6356C8.65528 15.7628 8.70162 15.7873 8.81733 15.8007C9.08661 15.8318 9.24543 15.7255 9.42186 15.5109C9.93401 14.8878 10.5935 14.4817 11.404 14.3415C12.3265 14.182 13.1923 14.3229 13.9611 14.8627C14.8923 15.5164 15.4146 16.41 15.4214 17.5708C15.4244 18.0934 15.4219 18.616 15.4219 19.1552C15.1732 19.1552 14.9364 19.1552 14.6719 19.1552C14.6719 18.7741 14.6816 18.3937 14.6694 18.0141C14.6545 17.554 14.6302 17.0925 14.4368 16.6626C14.0743 15.8566 13.4739 15.338 12.6039 15.1391C11.8774 14.973 11.2086 15.1159 10.597 15.5203C10.385 15.6604 10.2074 15.8527 9.99221 16.0402C10.7279 16.3583 11.2487 16.8344 11.6209 17.4711C11.9903 18.1029 12.1092 18.7922 12.0339 19.5469C12.1437 19.5469 12.2263 19.5469 12.309 19.5469C13.4495 19.5469 14.5905 19.5651 15.7304 19.5371C16.1321 19.5272 16.2911 19.8293 16.1172 20.1778C15.9779 20.4569 15.8374 20.7356 15.6895 21.0303C15.7468 21.0384 15.7757 21.0461 15.8046 21.0461C17.1249 21.0467 18.4453 21.0618 19.7652 21.0402C20.3828 21.0302 20.7876 20.7861 20.9739 20.2016C21.0199 20.0575 21.0438 19.9 21.0439 19.7487C21.0475 16.2177 21.0465 12.6866 21.046 9.1556C21.046 9.13228 21.0424 9.10896 21.0388 9.06631C18.3031 9.06631 15.5665 9.06631 12.8041 9.06631C12.8041 10.5462 12.8041 12.0331 12.8041 13.5334C12.5475 13.5334 12.3161 13.5334 12.0469 13.5334C12.0469 13.4576 12.0469 13.3759 12.0469 13.2941C12.0469 11.7707 12.0468 10.2474 12.047 8.72405C12.047 8.3787 12.1268 8.29704 12.4654 8.29702C15.4339 8.29682 18.4025 8.29684 21.3711 8.29699C21.7152 8.29701 21.7965 8.37726 21.7968 8.71675C21.7972 9.19199 21.7969 9.66723 21.7969 10.1465C22.087 10.1702 22.3667 10.1669 22.6351 10.2203C23.2921 10.3509 23.7052 10.7771 23.9556 11.3806C23.9693 11.4136 23.9994 11.4399 24.0343 11.4534C24.0469 13.5791 24.0469 15.7207 24.0343 17.8684C23.9993 17.904 23.9693 17.9304 23.9556 17.9635C23.7051 18.5667 23.2921 18.9929 22.6354 19.1235C22.367 19.1769 22.0874 19.1736 21.8025 19.1969C21.7667 19.8216 21.9232 20.4762 21.4512 21.0469C21.9561 21.0469 22.4079 21.0373 22.859 21.0498C23.2558 21.0608 23.6614 20.9768 24.0469 21.1407C24.0469 21.4541 24.0469 21.7676 24.0338 22.0872C23.9935 22.1454 23.9592 22.1952 23.9401 22.2502C23.7996 22.6532 23.5906 23.0212 23.2882 23.3172C22.9863 23.6129 22.6163 23.8176 22.212 23.9541C22.1766 23.9661 22.1537 24.0151 22.125 24.0469C15.4209 24.0469 8.71679 24.0469 2.00659 24.0338C1.94833 23.9935 1.8986 23.9593 1.84362 23.9401C1.44057 23.7996 1.07262 23.5906 0.776559 23.2883C0.480858 22.9863 0.276129 22.6164 0.139645 22.2121C0.127689 22.1767 0.0786757 22.1537 0.046875 22.125C0.0468751 21.8115 0.0468751 21.4981 0.059739 21.179C0.284424 21.1135 0.496244 21.0536 0.716778 20.9912C0.541717 20.7569 0.353838 20.5021 0.16043 20.2515C0.138514 20.2231 0.0854797 20.2187 0.046875 20.2032C0.0468751 20.0301 0.0468751 19.8569 0.0597957 19.6787C0.303525 19.6121 0.534333 19.5507 0.790481 19.4825C0.788826 19.4956 0.796242 19.466 0.795752 19.4367C0.787785 18.9591 0.784794 18.4832 0.967656 18.0273C0.987924 17.9768 0.956952 17.8924 0.92625 17.8367C0.549039 17.1523 0.246657 16.4417 0.133747 15.6609C0.130725 15.64 0.0769712 15.6264 0.0468752 15.6094C0.0468751 14.9991 0.0468751 14.3887 0.0468751 13.7564ZM7.55267 16.5931C7.08249 16.6684 6.68678 16.899 6.34581 17.2148C5.89453 17.6327 5.70117 18.1709 5.70957 18.78C5.43768 18.78 5.18502 18.78 4.92308 18.78C4.8846 17.8853 5.25852 17.18 5.87339 16.5371C5.30027 16.6447 4.82725 16.8645 4.44078 17.2431C4.0147 17.6605 3.82354 18.1826 3.8365 18.7819C3.56685 18.7819 3.31429 18.7819 3.04968 18.7819C3.00598 17.9159 3.3627 17.2269 3.94354 16.5888C3.27568 16.6433 2.74358 16.9186 2.31766 17.3587C1.80174 17.8918 1.53377 18.5418 1.59099 19.304C1.60342 19.4695 1.6428 19.5509 1.83408 19.5506C4.89521 19.5453 7.95634 19.5458 11.0175 19.55C11.1763 19.5503 11.2385 19.4954 11.251 19.343C11.3526 18.1117 10.5655 17.0918 9.48049 16.698C9.33904 16.6467 9.15884 16.6014 9.02639 16.6447C8.61989 16.7774 8.31263 17.0623 8.06086 17.4031C7.75892 17.8119 7.58583 18.2692 7.58364 18.7798C7.31208 18.7798 7.0593 18.7798 6.80728 18.7798C6.75409 18.3275 6.86656 17.9187 7.05695 17.54C7.21731 17.2211 7.43336 16.9302 7.64519 16.6091C7.65074 16.5917 7.65629 16.5742 7.66184 16.5568C7.63799 16.5679 7.61414 16.5789 7.55267 16.5931ZM5.55469 23.2969C10.7575 23.2969 15.9602 23.2995 21.163 23.2928C21.6638 23.2922 22.158 23.2118 22.5639 22.8704C22.8948 22.5922 23.1438 22.2646 23.2093 21.8065C15.7607 21.8065 8.33384 21.8065 0.893703 21.8065C0.898332 21.8687 0.892324 21.9239 0.907622 21.9724C1.05822 22.4501 1.36804 22.7998 1.79581 23.0471C2.13845 23.2452 2.52462 23.2859 2.9065 23.2923C3.77339 23.3069 4.64068 23.2969 5.55469 23.2969ZM21.7969 12.9141C21.7969 14.7463 21.7969 16.5785 21.7969 18.4413C21.9826 18.4161 22.1332 18.3925 22.2846 18.3758C22.7455 18.3247 23.0486 18.067 23.1976 17.6417C23.2622 17.4575 23.2917 17.252 23.2927 17.056C23.3003 15.5723 23.2987 14.0884 23.2948 12.6046C23.2942 12.3893 23.2641 12.1741 23.2509 11.9586C23.2075 11.2494 22.5312 10.8358 21.7969 10.953C21.7969 11.5892 21.7969 12.2282 21.7969 12.9141ZM11.9297 20.2969C8.36935 20.2969 4.80901 20.2969 1.21512 20.2969C1.37391 20.5165 1.50661 20.6939 1.63246 20.8761C1.72177 21.0053 1.82785 21.0521 1.99398 21.0519C6.17807 21.0456 10.3622 21.0469 14.5463 21.0469C14.6009 21.0469 14.6562 21.0515 14.71 21.0448C14.7438 21.0407 14.793 21.0286 14.8054 21.0046C14.9226 20.7788 15.0333 20.5497 15.158 20.2969C14.0679 20.2969 13.0223 20.2969 11.9297 20.2969ZM5.10543 15.6302C5.08375 15.6808 5.06207 15.7314 5.03647 15.7911C5.9727 15.7911 6.88242 15.7911 7.82759 15.7911C7.76186 15.6829 7.71612 15.588 7.65273 15.5069C7.43727 15.2312 7.1484 15.0987 6.80102 15.0699C6.16502 15.0172 5.54444 15.0015 5.10543 15.6302ZM6.47121 11.0367C6.40363 11.0818 6.33606 11.1269 6.26849 11.172C7.12623 11.112 7.90672 10.8684 8.60777 10.2626C7.81765 10.3926 7.14918 10.6777 6.47121 11.0367ZM6.35786 10.1753C6.57048 10.0743 6.7831 9.97332 6.99573 9.87231C6.06005 10.0407 5.64088 10.2622 5.50597 10.6623C5.79327 10.4991 6.06082 10.3471 6.35786 10.1753ZM5.44999 10.6577C5.46174 10.672 5.47349 10.6864 5.48523 10.7008C5.48357 10.6806 5.48191 10.6604 5.44999 10.6577Z" fill="#454545"/>
<path d="M15.7352 5.33368C15.8075 5.24151 15.8717 5.16496 15.9307 5.0846C16.2171 4.69452 16.233 4.07646 15.7764 3.56609C15.265 2.99459 15.2989 1.81514 15.8173 1.21065C15.9919 1.00719 16.0761 0.726351 16.2238 0.4375C16.3897 0.4375 16.6372 0.4375 16.9073 0.4375C16.9743 0.881133 16.812 1.26475 16.5556 1.60451C16.0906 2.22074 16.0699 2.67593 16.5494 3.26025C17.0677 3.89195 17.0507 4.99053 16.5383 5.61493C16.3516 5.84233 16.1851 6.08256 16.215 6.41262C15.9507 6.41262 15.6973 6.41262 15.4315 6.41262C15.3871 6.01149 15.5063 5.66633 15.7352 5.33368Z" fill="#454545"/>
<path d="M19.0953 1.04056C18.9914 1.23922 18.9253 1.44234 18.8029 1.60248C18.3364 2.21301 18.32 2.67123 18.8014 3.25878C19.3175 3.88875 19.3026 4.98747 18.7871 5.6126C18.5501 5.90007 18.4878 6.0575 18.4518 6.40963C18.1998 6.40963 17.9465 6.40963 17.6835 6.40963C17.6266 5.96118 17.7823 5.58142 18.0349 5.24555C18.5072 4.61758 18.5271 4.16164 18.0291 3.57481C17.5356 2.99328 17.5356 1.80374 18.0795 1.20131C18.2635 0.99764 18.4127 0.754965 18.3756 0.4375C18.6367 0.4375 18.8902 0.4375 19.1907 0.4375C19.1621 0.638681 19.1346 0.831983 19.0953 1.04056Z" fill="#454545"/>
<path d="M10.9219 15.7522C10.9219 15.6373 10.9219 15.545 10.9219 15.4375C11.1729 15.4375 11.4092 15.4375 11.6588 15.4375C11.6588 15.6719 11.6588 15.9027 11.6588 16.153C11.4293 16.153 11.1928 16.153 10.9219 16.153C10.9219 16.0327 10.9219 15.9038 10.9219 15.7522Z" fill="#454545"/>
<path d="M13.0666 15.4224C13.1165 15.4598 13.1665 15.4959 13.168 15.5339C13.176 15.7353 13.1718 15.9372 13.1718 16.1552C12.9237 16.1552 12.6873 16.1552 12.4365 16.1552C12.4365 15.9183 12.4365 15.682 12.4365 15.4219C12.6436 15.4219 12.844 15.4219 13.0666 15.4224Z" fill="#454545"/>
<path d="M19.9219 11.2969C20.0522 11.2969 20.16 11.2969 20.2821 11.2969C20.2821 11.5491 20.2821 11.7853 20.2821 12.0344C20.0459 12.0344 19.815 12.0344 19.5654 12.0344C19.5654 11.8029 19.5654 11.5664 19.5654 11.2969C19.6726 11.2969 19.786 11.2969 19.9219 11.2969Z" fill="#454545"/>
<path d="M20.1466 9.79696C20.2116 9.84284 20.2874 9.88619 20.291 9.93486C20.3052 10.1275 20.2969 10.3219 20.2969 10.5311C20.0469 10.5311 19.8106 10.5311 19.5605 10.5311C19.5605 10.2921 19.5605 10.0558 19.5605 9.79688C19.7543 9.79688 19.9392 9.79687 20.1466 9.79696Z" fill="#454545"/>
</g>
<defs>
<clipPath id="clip0_8395_6590">
<rect width="24" height="24" fill="white"/>
</clipPath>
</defs>
</svg>
