<svg width="24" height="24" viewBox="0 0 24 24" fill="none" xmlns="http://www.w3.org/2000/svg">
<path d="M19.5 4H16.5V2.5C16.5 2.36739 16.4473 2.24021 16.3536 2.14645C16.2598 2.05268 16.1326 2 16 2C15.8674 2 15.7402 2.05268 15.6464 2.14645C15.5527 2.24021 15.5 2.36739 15.5 2.5V4H8.5V2.5C8.5 2.36739 8.44732 2.24021 8.35355 2.14645C8.25979 2.05268 8.13261 2 8 2C7.86739 2 7.74021 2.05268 7.64645 2.14645C7.55268 2.24021 7.5 2.36739 7.5 2.5V4H4.5C3.8372 4.00079 3.20178 4.26444 2.73311 4.73311C2.26444 5.20178 2.00079 5.8372 2 6.5V19.5C2.00079 20.1628 2.26444 20.7982 2.73311 21.2669C3.20178 21.7356 3.8372 21.9992 4.5 22H19.5C20.1629 21.9995 20.7985 21.7359 21.2672 21.2672C21.7359 20.7985 21.9995 20.1629 22 19.5V6.5C21.9995 5.83712 21.7359 5.20154 21.2672 4.73282C20.7985 4.26409 20.1629 4.00053 19.5 4ZM21 19.5C21 19.8978 20.842 20.2794 20.5607 20.5607C20.2794 20.842 19.8978 21 19.5 21H4.5C4.10218 21 3.72064 20.842 3.43934 20.5607C3.15804 20.2794 3 19.8978 3 19.5V11H21V19.5ZM21 10H3V6.5C3 5.672 3.67 5 4.5 5H7.5V6.5C7.5 6.63261 7.55268 6.75979 7.64645 6.85355C7.74021 6.94732 7.86739 7 8 7C8.13261 7 8.25979 6.94732 8.35355 6.85355C8.44732 6.75979 8.5 6.63261 8.5 6.5V5H15.5V6.5C15.5 6.63261 15.5527 6.75979 15.6464 6.85355C15.7402 6.94732 15.8674 7 16 7C16.1326 7 16.2598 6.94732 16.3536 6.85355C16.4473 6.75979 16.5 6.63261 16.5 6.5V5H19.5C19.8978 5 20.2794 5.15804 20.5607 5.43934C20.842 5.72064 21 6.10218 21 6.5V10Z" fill="#454545"/>
<path d="M8.8 13H7.2C7.08954 13 7 13.0895 7 13.2V14.8C7 14.9105 7.08954 15 7.2 15H8.8C8.91046 15 9 14.9105 9 14.8V13.2C9 13.0895 8.91046 13 8.8 13Z" fill="#454545"/>
<path d="M8.8 17H7.2C7.08954 17 7 17.0895 7 17.2V18.8C7 18.9105 7.08954 19 7.2 19H8.8C8.91046 19 9 18.9105 9 18.8V17.2C9 17.0895 8.91046 17 8.8 17Z" fill="#454545"/>
<path d="M12.8 13H11.2C11.0895 13 11 13.0895 11 13.2V14.8C11 14.9105 11.0895 15 11.2 15H12.8C12.9105 15 13 14.9105 13 14.8V13.2C13 13.0895 12.9105 13 12.8 13Z" fill="#454545"/>
<path d="M12.8 17H11.2C11.0895 17 11 17.0895 11 17.2V18.8C11 18.9105 11.0895 19 11.2 19H12.8C12.9105 19 13 18.9105 13 18.8V17.2C13 17.0895 12.9105 17 12.8 17Z" fill="#454545"/>
<path d="M16.8 13H15.2C15.0895 13 15 13.0895 15 13.2V14.8C15 14.9105 15.0895 15 15.2 15H16.8C16.9105 15 17 14.9105 17 14.8V13.2C17 13.0895 16.9105 13 16.8 13Z" fill="#454545"/>
<path d="M16.8 17H15.2C15.0895 17 15 17.0895 15 17.2V18.8C15 18.9105 15.0895 19 15.2 19H16.8C16.9105 19 17 18.9105 17 18.8V17.2C17 17.0895 16.9105 17 16.8 17Z" fill="#454545"/>
</svg>
