<svg width="24" height="24" viewBox="0 0 24 24" fill="none" xmlns="http://www.w3.org/2000/svg">
<g clip-path="url(#clip0_8389_4908)">
<path d="M5.64844 0.792187C5.21719 0.904686 4.8375 1.21406 4.64063 1.61719C4.54688 1.81406 4.52344 1.93594 4.50938 2.42344L4.49063 2.99062L3.33281 3.00937L2.175 3.02344L1.81875 3.19687C1.39219 3.40781 1.12969 3.67969 0.923438 4.11562L0.773438 4.42969V12.3797V20.325L0.946875 20.6812C1.15781 21.1078 1.42969 21.3703 1.86563 21.5766L2.17969 21.7266L7.725 21.7406L13.2703 21.75L13.3828 21.6375C13.5375 21.4828 13.5375 21.2672 13.3828 21.1172L13.2703 21H7.87031C3.76875 21 2.42344 20.9859 2.27813 20.9437C2.02031 20.8687 1.63125 20.4797 1.55625 20.2219C1.51406 20.0719 1.5 18.6281 1.5 14.1375V8.25H12H22.5V11.5078V14.7703L22.6172 14.8828C22.7672 15.0375 22.9828 15.0375 23.1375 14.8828L23.25 14.7656L23.2406 9.6L23.2266 4.42969L23.0766 4.11562C22.8703 3.67969 22.6078 3.40781 22.1813 3.19687L21.825 3.02344L20.6672 3.00937L19.5094 2.99062L19.4906 2.42344C19.4719 1.87969 19.4625 1.8375 19.3125 1.55625C19.1438 1.23281 18.9422 1.04531 18.6094 0.881248C18.3 0.731249 17.6906 0.735937 17.3672 0.890625C17.0672 1.03594 16.7859 1.31719 16.6406 1.61719C16.5469 1.81875 16.5234 1.93594 16.5094 2.42344L16.4906 3H15H13.5094L13.4906 2.42344C13.4719 1.87969 13.4625 1.8375 13.3125 1.55625C13.1438 1.23281 12.9422 1.04531 12.6094 0.881248C12.3 0.731249 11.6906 0.735937 11.3672 0.890625C11.0672 1.03594 10.7859 1.31719 10.6406 1.61719C10.5469 1.81875 10.5234 1.93594 10.5094 2.42344L10.4906 3H9H7.50938L7.49063 2.42344C7.47188 1.87969 7.4625 1.8375 7.3125 1.55625C7.05469 1.06875 6.64688 0.80625 6.09844 0.773438C5.92969 0.764061 5.72813 0.768749 5.64844 0.792187ZM6.4125 1.62656C6.47813 1.67344 6.57656 1.77656 6.62813 1.84687C6.72188 1.96875 6.72656 2.03437 6.72656 3.375C6.72656 4.71562 6.72188 4.78125 6.62813 4.90312C6.44531 5.15156 6.29531 5.22656 6 5.22656C5.70469 5.22656 5.55469 5.15156 5.37188 4.90312C5.27813 4.78125 5.27344 4.70156 5.25938 3.50156C5.25 2.79844 5.25938 2.16094 5.27344 2.07656C5.30625 1.88906 5.50313 1.65 5.69531 1.56562C5.88281 1.47656 6.25781 1.50937 6.4125 1.62656ZM12.4125 1.62656C12.4781 1.67344 12.5766 1.77656 12.6281 1.84687C12.7219 1.96875 12.7266 2.03437 12.7266 3.375C12.7266 4.71562 12.7219 4.78125 12.6281 4.90312C12.4453 5.15156 12.2953 5.22656 12 5.22656C11.7047 5.22656 11.5547 5.15156 11.3719 4.90312C11.2781 4.78125 11.2734 4.70156 11.2594 3.50156C11.25 2.79844 11.2594 2.16094 11.2734 2.07656C11.3063 1.88906 11.5031 1.65 11.6953 1.56562C11.8828 1.47656 12.2578 1.50937 12.4125 1.62656ZM18.4125 1.62656C18.4781 1.67344 18.5766 1.77656 18.6281 1.84687C18.7219 1.96875 18.7266 2.03437 18.7266 3.375C18.7266 4.71562 18.7219 4.78125 18.6281 4.90312C18.4453 5.15156 18.2953 5.22656 18 5.22656C17.7047 5.22656 17.5547 5.15156 17.3719 4.90312C17.2781 4.78125 17.2734 4.70156 17.2594 3.50156C17.25 2.79844 17.2594 2.16094 17.2734 2.07656C17.3063 1.88906 17.5031 1.65 17.6953 1.56562C17.8828 1.47656 18.2578 1.50937 18.4125 1.62656ZM4.50938 4.32187C4.52813 4.79062 4.55156 4.94062 4.63125 5.10938C4.79063 5.44219 4.98281 5.63906 5.30625 5.81719C5.57812 5.9625 5.63438 5.97656 6 5.97656C6.36563 5.97656 6.42188 5.9625 6.69375 5.81719C7.02188 5.63906 7.16719 5.48906 7.34531 5.1375C7.45313 4.92656 7.47188 4.82812 7.49063 4.32187L7.50938 3.75H9H10.4906L10.5094 4.32187C10.5281 4.79062 10.5516 4.94062 10.6313 5.10938C10.7906 5.44219 10.9828 5.63906 11.3063 5.81719C11.5781 5.9625 11.6344 5.97656 12 5.97187C12.3375 5.97187 12.4359 5.95312 12.6375 5.85C12.9938 5.6625 13.1391 5.52187 13.3125 5.19375C13.4625 4.9125 13.4719 4.87031 13.4906 4.32187L13.5094 3.75H15H16.4906L16.5094 4.32187C16.5281 4.79062 16.5516 4.94062 16.6313 5.10938C16.7906 5.44219 16.9828 5.63906 17.3063 5.81719C17.5781 5.9625 17.6344 5.97656 18 5.97656C18.3656 5.97656 18.4219 5.9625 18.6938 5.81719C19.0219 5.63906 19.1672 5.48906 19.3453 5.1375C19.4531 4.92656 19.4719 4.82812 19.4906 4.32187L19.5094 3.75H20.5219C21.1734 3.75 21.5953 3.76875 21.7219 3.80625C21.9797 3.88125 22.3688 4.27031 22.4438 4.52812C22.4813 4.65937 22.5 5.15625 22.5 6.1125V7.5H12H1.5V6.1125C1.5 5.15625 1.51875 4.65937 1.55625 4.52812C1.62656 4.28906 2.02031 3.88594 2.25 3.81094C2.34844 3.78281 2.84063 3.75937 3.45 3.75469L4.49063 3.75L4.50938 4.32187Z" fill="#454545"/>
<path d="M4.19551 10.1906C4.00332 10.275 3.80645 10.5141 3.77363 10.7016C3.75488 10.7859 3.7502 11.175 3.75957 11.5641C3.77363 12.3375 3.79707 12.4078 4.09707 12.6281C4.21895 12.7219 4.28926 12.7266 5.2502 12.7266C6.21113 12.7266 6.28145 12.7219 6.40332 12.6281C6.71738 12.3984 6.72676 12.3562 6.72676 11.4375C6.72676 10.6641 6.71738 10.5891 6.62832 10.4719C6.39395 10.1578 6.37051 10.1484 5.30645 10.1391C4.57051 10.1297 4.30332 10.1391 4.19551 10.1906ZM6.0002 11.4375V12H5.2502H4.5002V11.4375V10.875H5.2502H6.0002V11.4375Z" fill="#454545"/>
<path d="M8.69551 10.1906C8.50332 10.275 8.30645 10.5141 8.27363 10.7016C8.25488 10.7859 8.2502 11.175 8.25957 11.5641C8.27363 12.3375 8.29707 12.4078 8.59707 12.6281C8.71895 12.7219 8.78926 12.7266 9.7502 12.7266C10.7111 12.7266 10.7814 12.7219 10.9033 12.6281C11.2174 12.3984 11.2268 12.3562 11.2268 11.4375C11.2268 10.6641 11.2174 10.5891 11.1283 10.4719C10.8939 10.1578 10.8705 10.1484 9.80645 10.1391C9.07051 10.1297 8.80332 10.1391 8.69551 10.1906ZM10.5002 11.4375V12H9.7502H9.0002V11.4375V10.875H9.7502H10.5002V11.4375Z" fill="#454545"/>
<path d="M13.1955 10.1906C13.0033 10.275 12.8064 10.5141 12.7736 10.7016C12.7549 10.7859 12.7502 11.175 12.7596 11.5641C12.7736 12.3375 12.7971 12.4078 13.0971 12.6281C13.2189 12.7219 13.2893 12.7266 14.2502 12.7266C15.2111 12.7266 15.2814 12.7219 15.4033 12.6281C15.7174 12.3984 15.7268 12.3562 15.7268 11.4375C15.7268 10.6641 15.7174 10.5891 15.6283 10.4719C15.3939 10.1578 15.3705 10.1484 14.3064 10.1391C13.5705 10.1297 13.3033 10.1391 13.1955 10.1906ZM15.0002 11.4375V12H14.2502H13.5002V11.4375V10.875H14.2502H15.0002V11.4375Z" fill="#454545"/>
<path d="M17.6955 10.1906C17.5033 10.275 17.3064 10.5141 17.2736 10.7016C17.2549 10.7859 17.2502 11.175 17.2596 11.5641C17.2736 12.3375 17.2971 12.4078 17.5971 12.6281C17.7189 12.7219 17.7893 12.7266 18.7502 12.7266C19.7111 12.7266 19.7814 12.7219 19.9033 12.6281C20.2174 12.3984 20.2268 12.3562 20.2268 11.4375C20.2268 10.6641 20.2174 10.5891 20.1283 10.4719C19.8939 10.1578 19.8705 10.1484 18.8064 10.1391C18.0705 10.1297 17.8033 10.1391 17.6955 10.1906ZM19.5002 11.4375V12H18.7502H18.0002V11.4375V10.875H18.7502H19.5002V11.4375Z" fill="#454545"/>
<path d="M4.19551 13.5656C4.00332 13.65 3.80645 13.8891 3.77363 14.0766C3.75488 14.1609 3.7502 14.55 3.75957 14.9391C3.77363 15.7125 3.79707 15.7828 4.09707 16.0031C4.21895 16.0969 4.28926 16.1016 5.2502 16.1016C6.21113 16.1016 6.28145 16.0969 6.40332 16.0031C6.71738 15.7734 6.72676 15.7312 6.72676 14.8125C6.72676 14.0391 6.71738 13.9641 6.62832 13.8469C6.39395 13.5328 6.37051 13.5234 5.30645 13.5141C4.57051 13.5047 4.30332 13.5141 4.19551 13.5656ZM6.0002 14.8125V15.375H5.2502H4.5002V14.8125V14.25H5.2502H6.0002V14.8125Z" fill="#454545"/>
<path d="M8.69551 13.5656C8.50332 13.65 8.30645 13.8891 8.27363 14.0766C8.25488 14.1609 8.2502 14.55 8.25957 14.9391C8.27363 15.7125 8.29707 15.7828 8.59707 16.0031C8.71895 16.0969 8.78926 16.1016 9.7502 16.1016C10.7111 16.1016 10.7814 16.0969 10.9033 16.0031C11.2174 15.7734 11.2268 15.7312 11.2268 14.8125C11.2268 14.0391 11.2174 13.9641 11.1283 13.8469C10.8939 13.5328 10.8705 13.5234 9.80645 13.5141C9.07051 13.5047 8.80332 13.5141 8.69551 13.5656ZM10.5002 14.8125V15.375H9.7502H9.0002V14.8125V14.25H9.7502H10.5002V14.8125Z" fill="#454545"/>
<path d="M13.1955 13.5699C13.0033 13.6543 12.8064 13.8934 12.7736 14.0809C12.7549 14.1652 12.7502 14.5543 12.7596 14.9434C12.7736 15.5762 12.783 15.6699 12.8721 15.7824C13.0221 15.9887 13.1908 16.0918 13.4205 16.1152C13.6033 16.1387 13.6502 16.1246 13.7533 16.0215C13.9127 15.8621 13.9127 15.6512 13.758 15.4965C13.6971 15.4309 13.6127 15.3793 13.5705 15.3793C13.5096 15.3793 13.5002 15.2949 13.5002 14.8168V14.2543H14.3205C15.1314 14.2543 15.1455 14.2543 15.258 14.1371C15.333 14.0668 15.3752 13.9684 15.3752 13.8793C15.3752 13.7902 15.333 13.6918 15.258 13.6215C15.1455 13.5043 15.1408 13.5043 14.2408 13.5043C13.5939 13.509 13.2939 13.5277 13.1955 13.5699Z" fill="#454545"/>
<path d="M17.5688 13.5715C15.8344 13.8621 14.3438 15.1184 13.7766 16.7731C13.4251 17.7856 13.4204 18.9293 13.7579 19.9184C14.311 21.5543 15.6891 22.7777 17.3673 23.1387C18.6798 23.4199 20.1141 23.1199 21.211 22.3371C21.5438 22.1027 22.1063 21.5356 22.336 21.2168C22.7485 20.6356 23.0907 19.7731 23.1985 19.0465C23.3766 17.8418 23.0298 16.4637 22.2985 15.4887C22.0454 15.1559 21.4407 14.5699 21.1313 14.3543C20.1282 13.6652 18.7782 13.3699 17.5688 13.5715ZM19.3829 14.3824C20.9063 14.7996 21.9798 15.8824 22.3876 17.4199C22.5141 17.9027 22.5094 18.8824 22.3735 19.384C21.9657 20.884 20.8829 21.9668 19.3829 22.3746C18.8813 22.5106 17.9016 22.5152 17.4188 22.3887C15.6094 21.9059 14.3813 20.4387 14.2641 18.6152C14.1891 17.4527 14.6251 16.3184 15.4688 15.4699C16.0876 14.8559 16.7907 14.4809 17.6485 14.3168C18.0891 14.2324 18.9516 14.2652 19.3829 14.3824Z" fill="#454545"/>
<path d="M20.6723 16.7203C20.6348 16.7344 19.9317 17.4141 19.116 18.2297L17.6254 19.7109L16.9364 19.0219C16.1348 18.225 16.041 18.1734 15.7926 18.4172C15.5395 18.675 15.5817 18.7453 16.5848 19.7484C17.3864 20.5453 17.4801 20.625 17.6254 20.625C17.7754 20.625 17.9114 20.4984 19.4207 18.9938C20.3207 18.0984 21.0848 17.3109 21.1223 17.2406C21.216 17.0578 21.2067 16.9781 21.052 16.8234C20.9207 16.6922 20.8223 16.6641 20.6723 16.7203Z" fill="#454545"/>
<path d="M4.19551 16.9406C4.00332 17.025 3.80645 17.2641 3.77363 17.4516C3.75488 17.5359 3.7502 17.925 3.75957 18.3141C3.77363 19.0875 3.79707 19.1578 4.09707 19.3781C4.21895 19.4719 4.28926 19.4766 5.2502 19.4766C6.21113 19.4766 6.28145 19.4719 6.40332 19.3781C6.71738 19.1484 6.72676 19.1062 6.72676 18.1875C6.72676 17.4141 6.71738 17.3391 6.62832 17.2219C6.39395 16.9078 6.37051 16.8984 5.30645 16.8891C4.57051 16.8797 4.30332 16.8891 4.19551 16.9406ZM6.0002 18.1875V18.75H5.2502H4.5002V18.1875V17.625H5.2502H6.0002V18.1875Z" fill="#454545"/>
<path d="M8.69551 16.9406C8.50332 17.025 8.30645 17.2641 8.27363 17.4516C8.25488 17.5359 8.2502 17.925 8.25957 18.3141C8.27363 19.0875 8.29707 19.1578 8.59707 19.3781C8.71895 19.4719 8.78926 19.4766 9.7502 19.4766C10.7111 19.4766 10.7814 19.4719 10.9033 19.3781C11.2174 19.1484 11.2268 19.1062 11.2268 18.1875C11.2268 17.4141 11.2174 17.3391 11.1283 17.2219C10.8939 16.9078 10.8705 16.8984 9.80645 16.8891C9.07051 16.8797 8.80332 16.8891 8.69551 16.9406ZM10.5002 18.1875V18.75H9.7502H9.0002V18.1875V17.625H9.7502H10.5002V18.1875Z" fill="#454545"/>
</g>
<defs>
<clipPath id="clip0_8389_4908">
<rect width="24" height="24" fill="white"/>
</clipPath>
</defs>
</svg>
