<svg width="12" height="12" viewBox="0 0 12 12" fill="none" xmlns="http://www.w3.org/2000/svg">
<path d="M6 0C2.68631 0 0 2.68631 0 6C0 9.31388 2.68631 12 6 12C9.31388 12 12 9.31388 12 6C12 2.68631 9.31388 0 6 0ZM6 11.2618C3.10519 11.2618 0.75 8.89481 0.75 5.99998C0.75 3.10516 3.10519 0.749977 6 0.749977C8.89481 0.749977 11.25 3.10518 11.25 5.99998C11.25 8.89478 8.89481 11.2618 6 11.2618ZM8.12119 3.87881C7.97475 3.73238 7.73738 3.73238 7.59094 3.87881L6 5.46975L4.40906 3.87881C4.26262 3.73238 4.02525 3.73238 3.87863 3.87881C3.73219 4.02525 3.73219 4.26262 3.87863 4.40906L5.46956 6L3.87863 7.59094C3.73219 7.73719 3.73219 7.97495 3.87863 8.1212C4.02506 8.26764 4.26244 8.26764 4.40906 8.1212L6 6.53026L7.59094 8.1212C7.73738 8.26764 7.97475 8.26764 8.12119 8.1212C8.26762 7.97495 8.26762 7.73719 8.12119 7.59094L6.53025 6L8.12119 4.40906C8.26781 4.26244 8.26781 4.02506 8.12119 3.87881Z" fill="#FF0D0D"/>
</svg>
