<svg width="24" height="24" viewBox="0 0 24 24" fill="none" xmlns="http://www.w3.org/2000/svg">
<g clip-path="url(#clip0_8395_6517)">
<path d="M0.0468751 18.5818C0.406963 18.3446 0.809305 18.4446 1.19666 18.413C1.43409 17.6211 2.10358 17.1481 2.57211 16.5014C2.39157 16.2457 2.28887 15.9299 2.44988 15.6387C2.57694 15.4088 2.7917 15.2094 3.00696 15.0497C3.69567 14.5386 4.46177 14.1855 5.30501 14.0038C5.38063 13.9875 5.47027 13.9016 5.49946 13.827C5.65433 13.431 5.99991 13.3005 6.35489 13.1677C7.16056 12.8665 7.99595 12.7585 8.84832 12.8009C9.19799 12.8182 9.54425 12.9044 9.89203 12.9594C9.94428 12.9676 9.9964 12.9767 10.0832 12.9912C10.0626 12.611 10.0487 12.2498 10.0217 11.8896C10.0033 11.6448 9.96049 11.4018 9.93947 11.1571C9.90315 10.7342 9.86569 10.3111 9.846 9.88721C9.81382 9.19452 10.312 8.66445 11.0075 8.66628C13.9671 8.67407 16.9267 8.67603 19.8863 8.66407C20.4676 8.66172 21.0424 9.19784 21.0017 9.79428C20.9904 9.95967 21 10.1265 21 10.2849C21.2378 10.2488 21.498 10.185 21.7605 10.1739C22.7637 10.1313 23.6141 10.7502 23.9531 11.6826C23.9678 11.723 23.9983 11.7577 24.0341 11.7792C24.0469 12.4362 24.0469 13.109 24.0341 13.788C23.999 13.8237 23.9664 13.8501 23.9561 13.8835C23.8397 14.2602 23.6347 14.5803 23.338 14.838C22.7914 15.3129 22.1633 15.5264 21.4426 15.3749C21.1556 15.3145 20.878 15.2091 20.5949 15.1238C20.5589 15.621 20.5237 16.1355 20.4836 16.6496C20.4614 16.9334 20.4537 17.2212 20.3981 17.4989C20.3356 17.811 20.2266 18.1138 20.1381 18.4196C21.0791 18.4196 22.0474 18.418 23.0157 18.4204C23.365 18.4213 23.7232 18.3663 24.0469 18.5602C24.0469 18.7333 24.0469 18.9064 24.0341 19.0852C23.8733 19.4397 23.7221 19.7872 23.5782 20.1377C23.3792 20.622 22.8302 21.0476 22.2855 21.0472C15.4631 21.0432 8.64063 21.0423 1.81819 21.0495C1.3516 21.05 0.725884 20.6631 0.55322 20.1829C0.42945 19.8387 0.278126 19.5043 0.13457 19.1675C0.124695 19.1443 0.0769881 19.1373 0.046875 19.1227C0.0468751 18.9496 0.0468751 18.7765 0.0468751 18.5818ZM12.3516 19.1696C8.56639 19.1696 4.78122 19.1696 0.94769 19.1696C1.07654 19.4643 1.16248 19.7367 1.30859 19.9717C1.43011 20.1671 1.62446 20.2972 1.88858 20.2971C8.66062 20.2939 15.4327 20.2958 22.2047 20.2869C22.3568 20.2867 22.5655 20.2138 22.6494 20.1014C22.8495 19.8331 22.9906 19.5209 23.1874 19.1696C23.0153 19.1696 22.9325 19.1696 22.8497 19.1696C21.4203 19.1696 19.9909 19.1696 18.5615 19.1696C18.5068 19.1696 18.442 19.1885 18.3995 19.1657C18.2924 19.1081 18.1709 19.0506 18.1004 18.9585C18 18.8274 18.0285 18.6631 18.1635 18.5709C18.276 18.494 18.4212 18.4346 18.5557 18.4259C18.9419 18.401 19.2313 18.2463 19.4653 17.9303C19.7424 17.5562 19.6737 17.1212 19.727 16.7116C19.8025 16.1309 19.8292 15.5438 19.8739 14.9592C19.9381 14.1202 20.0023 13.2812 20.0615 12.4418C20.098 11.925 20.1205 11.4071 20.1585 10.8904C20.1783 10.6224 20.2158 10.3555 20.2498 10.0887C20.3154 9.57296 20.1843 9.41959 19.6718 9.41959C16.7974 9.41959 13.923 9.41951 11.0486 9.41972C10.758 9.41974 10.563 9.65391 10.5932 9.92765C10.6499 10.4403 10.6932 10.9546 10.733 11.4689C10.7711 11.9622 10.7887 12.4571 10.8336 12.9497C10.8513 13.144 10.8753 13.3364 11.1284 13.4279C11.2548 13.4737 11.3761 13.6561 11.4115 13.7987C11.4509 13.9574 11.5382 13.9856 11.6559 14.0124C12.5886 14.2252 13.4272 14.6329 14.1755 15.2276C14.6049 15.5689 14.6695 15.9247 14.4042 16.4229C14.3812 16.466 14.3926 16.5563 14.4243 16.5946C14.5723 16.7733 14.7359 16.939 14.8886 17.1139C15.1966 17.4667 15.5335 17.8036 15.687 18.2594C15.7329 18.3955 15.7951 18.4228 15.9171 18.4211C16.2373 18.4166 16.5577 18.4143 16.8778 18.4212C17.1655 18.4274 17.3006 18.565 17.2968 18.8276C17.2937 19.0483 17.1444 19.1695 16.8741 19.1695C15.3822 19.1697 13.8903 19.1696 12.3516 19.1696ZM10.3126 17.3713C10.4488 16.2678 10.585 15.1643 10.7216 14.057C10.106 13.7404 9.45784 13.5965 8.79304 13.55C7.95239 13.4913 7.14081 13.6566 6.36268 13.9758C6.30477 13.9996 6.24133 14.0953 6.24089 14.1581C6.23941 14.3656 6.26573 14.5733 6.28121 14.781C6.29582 14.9772 6.17842 15.0951 6.01308 15.1312C5.8203 15.1733 5.64234 15.1243 5.5784 14.8946C5.56259 14.8378 5.53427 14.7844 5.51271 14.7319C4.61472 14.9415 3.82535 15.3314 3.12927 15.9134C3.15677 15.9645 3.16914 15.9925 3.18577 16.0177C3.69099 16.7832 4.1957 17.549 4.70452 18.312C4.73566 18.3587 4.7992 18.4126 4.84878 18.4137C5.22482 18.4222 5.60113 18.4183 5.97709 18.4183C5.95141 18.1834 5.93057 17.9766 5.9059 17.7703C5.85125 17.3131 5.79985 16.8555 5.73651 16.3995C5.70906 16.2019 5.84247 15.9849 6.04536 15.9381C6.22939 15.8956 6.43486 16.0268 6.46618 16.237C6.53846 16.722 6.59383 17.2095 6.6563 17.696C6.68707 17.9356 6.71837 18.1752 6.74853 18.4079C7.92323 18.4079 9.06066 18.4079 10.2017 18.4079C10.2394 18.0692 10.276 17.7416 10.3126 17.3713ZM23.3015 13.2047C23.3 12.8985 23.3135 12.5913 23.2942 12.2863C23.2293 11.2615 22.0987 10.5587 21.0789 11.1128C20.9829 11.165 20.9027 11.2288 20.8983 11.3741C20.89 11.6416 20.8367 11.9073 20.8139 12.1748C20.7629 12.7743 20.7158 13.3741 20.6763 13.9744C20.6713 14.0494 20.701 14.146 20.7497 14.2023C21.1317 14.6437 21.7943 14.7912 22.375 14.5679C22.928 14.3553 23.3534 13.6883 23.3015 13.2047ZM10.9929 18.0907C10.9838 18.1944 10.9747 18.2981 10.964 18.4194C11.3544 18.4194 11.7119 18.4247 12.0689 18.4143C12.1281 18.4125 12.2043 18.3554 12.2403 18.302C12.7188 17.5934 13.183 16.8749 13.6716 16.1733C13.8001 15.9888 13.7882 15.8747 13.622 15.7534C12.9523 15.2645 12.2244 14.9025 11.4066 14.7262C11.3843 14.8841 11.3607 15.0277 11.3444 15.1722C11.2946 15.6146 11.25 16.0577 11.1989 16.5C11.139 17.0178 11.0742 17.535 10.9929 18.0907ZM13.8246 17.312C13.5815 17.6727 13.3383 18.0333 13.0854 18.4084C13.7137 18.4084 14.302 18.4084 14.9059 18.4084C14.8862 18.3526 14.8817 18.3031 14.8555 18.2717C14.5704 17.9297 14.284 17.5888 13.9899 17.2546C13.9708 17.2329 13.8858 17.269 13.8246 17.312ZM3.56252 17.9743C3.38439 17.7081 3.20625 17.4418 3.02222 17.1668C2.67936 17.5707 2.34037 17.9701 1.97058 18.4058C2.63884 18.4058 3.22524 18.4058 3.83844 18.4058C3.74536 18.2557 3.66584 18.1275 3.56252 17.9743Z" fill="#454545"/>
<path d="M14.7183 7.22984C14.8865 6.97561 15.0357 6.72438 15.2262 6.50983C15.4942 6.208 15.4938 6.05666 15.1918 5.79044C14.7701 5.41878 14.5054 4.91255 14.7727 4.33885C14.8671 4.13614 15.0266 3.95784 15.1806 3.79065C15.2996 3.66145 15.4257 3.56298 15.4294 3.35762C15.4332 3.14801 15.62 3.03317 15.8597 3.04818C16.0545 3.06039 16.1682 3.18438 16.1712 3.39586C16.1772 3.80859 15.9975 4.11906 15.6763 4.37708C15.3362 4.65036 15.3269 4.9357 15.6849 5.19043C16.2957 5.62498 16.3142 6.60223 15.8355 6.97969C15.617 7.15193 15.402 7.33994 15.3955 7.67868C15.3921 7.85531 15.1922 7.92345 15.0252 7.91714C14.8422 7.91022 14.6993 7.81039 14.684 7.61126C14.6748 7.49215 14.7052 7.36999 14.7183 7.22984Z" fill="#454545"/>
<path d="M16.8637 7.46569C16.6646 7.31569 16.6665 7.13914 16.7501 6.94916C17.0508 6.26522 16.9818 5.62449 16.5368 5.02177C16.4272 4.87319 16.444 4.70993 16.5215 4.5468C16.6577 4.26031 16.7978 3.97515 16.9188 3.68222C17.0112 3.45843 17.1766 3.3598 17.4073 3.42705C17.5962 3.48213 17.689 3.65269 17.628 3.87659C17.5447 4.18194 17.445 4.48282 17.3395 4.82769C17.7733 5.60033 17.7992 6.45429 17.4292 7.32506C17.3439 7.52575 17.1154 7.58103 16.8637 7.46569Z" fill="#454545"/>
<path d="M13.2758 5.55059C13.1561 5.04775 13.1265 4.5634 13.264 4.07701C13.3244 3.86319 13.5392 3.73808 13.7683 3.79496C13.927 3.83437 14.0514 4.06388 14.0011 4.24388C13.8305 4.85383 13.9326 5.40705 14.3228 5.90982C14.4538 6.07855 14.4003 6.33253 14.2244 6.46526C14.0949 6.56292 13.8335 6.54139 13.7315 6.38354C13.5637 6.12378 13.4309 5.84142 13.2758 5.55059Z" fill="#454545"/>
</g>
<defs>
<clipPath id="clip0_8395_6517">
<rect width="24" height="24" fill="white"/>
</clipPath>
</defs>
</svg>
