<svg width="24" height="24" viewBox="0 0 24 24" fill="none" xmlns="http://www.w3.org/2000/svg">
<path d="M2.80425 2.32532C2.26779 2.46805 1.87405 2.80764 1.62796 3.32442L1.5 3.60004V6.87297V10.1459L1.64273 10.4363C1.93311 11.0318 2.4302 11.3714 3.12908 11.4452C3.43915 11.4846 3.52774 11.5141 3.63602 11.6175L3.76398 11.7455L3.78859 12.8922C3.8132 14.098 3.82304 14.1276 4.06913 14.3638C4.32998 14.6148 4.71387 14.6739 5.01902 14.5065C5.11253 14.4573 5.72282 13.8421 6.37741 13.1432C7.02707 12.4443 7.63244 11.8193 7.72595 11.7553C8.00649 11.5683 8.35101 11.4944 9.06465 11.4649L9.73893 11.4354L9.75369 13.7191L9.76846 16.0027L9.92595 16.3325C10.1917 16.8935 10.6396 17.2381 11.245 17.3513C11.4271 17.3857 12.4557 17.4054 14.0799 17.4054C16.8557 17.4054 16.8557 17.4054 17.2839 17.6859C17.3872 17.7598 17.9779 18.3602 18.5881 19.0246C19.2034 19.6891 19.7792 20.2895 19.8678 20.3535C20.2468 20.6291 20.8472 20.5012 21.0884 20.0927C21.2065 19.8859 21.2114 19.8613 21.2114 18.8622C21.2114 17.4989 21.2311 17.4497 21.8463 17.3857C22.5501 17.307 23.0472 16.9723 23.3376 16.3817L23.5 16.0519V12.779V9.50608L23.372 9.23538C23.1899 8.85149 22.9438 8.59064 22.5796 8.39377L22.2696 8.22644L18.7653 8.21167L15.2611 8.19691L15.2463 5.92308L15.2315 3.64925L15.0937 3.35395C14.9067 2.95529 14.7492 2.76335 14.4539 2.56648C13.9519 2.23673 14.1783 2.24657 8.34116 2.25149C3.86734 2.25149 3.03557 2.26626 2.80425 2.32532ZM13.7452 3.08818C13.8485 3.11771 14.0208 3.21614 14.1291 3.31458C14.4638 3.6148 14.4736 3.69847 14.4588 6.0855L14.4441 8.17722L12.7461 8.20183C10.8069 8.23136 10.8119 8.23136 10.3295 8.67923C9.91119 9.06805 9.74385 9.53069 9.74385 10.2985V10.6479L8.97114 10.6725C8.1 10.7021 7.75056 10.7906 7.27315 11.1155C7.14027 11.2041 6.51029 11.8439 5.87047 12.5329C5.23065 13.222 4.67942 13.7929 4.64497 13.8027C4.60067 13.8126 4.58098 13.5616 4.56622 12.7199C4.55145 11.5437 4.54653 11.5141 4.25615 11.1302C4.08389 10.894 3.7 10.7119 3.31119 10.6774C2.79441 10.6331 2.49911 10.4461 2.33669 10.0622C2.27271 9.90474 2.26286 9.48147 2.26779 6.86312C2.26779 4.67789 2.28747 3.80675 2.32685 3.69847C2.44004 3.40809 2.64676 3.21122 2.93714 3.10295C3.08971 3.04881 4.06913 3.03896 8.34116 3.03404C11.8749 3.03404 13.6172 3.05373 13.7452 3.08818ZM22.3286 9.16648C22.432 9.24523 22.5649 9.41257 22.6289 9.53069L22.7371 9.74724V12.7642C22.7371 16.0618 22.7421 15.983 22.4517 16.2882C22.2548 16.4998 22.1072 16.5589 21.6544 16.613C21.2065 16.6721 21.0195 16.7607 20.7537 17.0609C20.4732 17.366 20.4239 17.622 20.4239 18.7441C20.4239 19.4971 20.4092 19.7186 20.36 19.7186C20.3255 19.7186 19.789 19.1625 19.1689 18.4882C18.0025 17.2135 17.7268 16.9723 17.1855 16.7557C16.9049 16.6425 16.8902 16.6425 14.0996 16.6179C11.4812 16.5933 11.2794 16.5884 11.1072 16.4998C10.8463 16.3718 10.6445 16.1012 10.5805 15.8108C10.5412 15.6385 10.5313 14.6246 10.5412 12.6314L10.5559 9.70295L10.6691 9.49131C10.738 9.35843 10.8709 9.22554 11.0136 9.13203L11.24 8.9893L16.6884 8.99914L22.1367 9.01391L22.3286 9.16648Z" fill="black"/>
<path d="M3.77874 5.14924C3.65569 5.27721 3.63601 5.32642 3.66061 5.45931C3.67538 5.5479 3.73936 5.65618 3.7935 5.70047C3.89193 5.78414 4.16755 5.78906 8.0803 5.78906H12.2588L12.3769 5.66602C12.5689 5.479 12.5098 5.16401 12.2687 5.05573C12.185 5.01636 10.9497 5.00159 8.04093 5.00159H3.92639L3.77874 5.14924Z" fill="black"/>
<path d="M3.78489 7.99942C3.63232 8.12246 3.62739 8.40792 3.77997 8.5605C3.88824 8.66877 3.90793 8.66877 5.601 8.68354C6.54104 8.69338 7.38265 8.68354 7.47124 8.66877C7.81576 8.60479 7.94865 8.23566 7.71241 8.01419C7.59921 7.90591 7.57952 7.90591 5.74865 7.90591C4.01621 7.90591 3.89317 7.91083 3.78489 7.99942Z" fill="black"/>
<path d="M12.3513 11.0856C12.1888 11.2578 12.1987 11.4842 12.3709 11.6368L12.5038 11.75H16.6085C19.5123 11.75 20.7477 11.7352 20.8313 11.6959C21.0725 11.5876 21.1316 11.2726 20.9396 11.0856L20.8215 10.9625H16.643H12.4645L12.3513 11.0856Z" fill="black"/>
<path d="M12.4744 13.8633C12.2234 13.9617 12.1545 14.3063 12.3513 14.5031C12.4498 14.6016 12.5138 14.6016 15.2502 14.6016H18.0556L18.154 14.4736C18.3263 14.2521 18.2722 14.0011 18.0261 13.8732C17.8981 13.8042 12.6368 13.7944 12.4744 13.8633Z" fill="black"/>
</svg>
