<svg width="24" height="24" viewBox="0 0 24 24" fill="none" xmlns="http://www.w3.org/2000/svg">
<g clip-path="url(#clip0_8389_5263)">
<path d="M1.63125 0.0956383C1.03594 0.198763 0.454687 0.65345 0.182812 1.2347L0.0234375 1.5722V11.8613V22.1503L0.13125 22.4081C0.346875 22.9378 0.735937 23.3269 1.26562 23.5425L1.52344 23.6503L6.35156 23.6644C9.60937 23.6738 11.2547 23.6597 11.4094 23.6269C11.5359 23.5988 11.7609 23.5144 11.9109 23.4441L12.1734 23.3081L12.4969 23.4253C14.0016 23.9691 15.4734 24.0722 16.9641 23.7394C19.2375 23.2284 21.1969 21.6909 22.2281 19.6097C22.4344 19.1972 22.4391 19.0659 22.2656 18.8925C22.1625 18.7894 21.9375 18.7706 21.7922 18.8456C21.7453 18.8738 21.6141 19.0706 21.5109 19.2816C20.4047 21.4941 18.2578 22.9144 15.6937 23.1347L15.3281 23.1675V22.6519C15.3281 22.2113 15.3141 22.1222 15.2344 22.0238C15.1219 21.8738 14.9578 21.8409 14.7703 21.9206C14.5734 22.0003 14.5312 22.1409 14.5312 22.6706V23.1159L14.3109 23.0878C13.5984 22.9894 12.7828 22.7316 12.0844 22.38C10.0219 21.3441 8.52656 19.1597 8.31562 16.8816L8.28281 16.5488H8.77969C9.23437 16.5488 9.28594 16.5394 9.40312 16.4363C9.57187 16.2956 9.58594 16.0331 9.43125 15.8784C9.3375 15.7847 9.26719 15.7753 8.80312 15.7613L8.28281 15.7425L8.31562 15.4144C8.47969 13.6472 9.45937 11.8613 10.8937 10.7081C11.8031 9.97689 12.9562 9.45189 14.0062 9.28314C14.1797 9.25501 14.3672 9.2222 14.4234 9.21282C14.5219 9.18939 14.5219 9.20345 14.5406 9.7097C14.5547 10.2113 14.5594 10.2347 14.6859 10.3425C14.8641 10.4925 15.0234 10.4878 15.1922 10.3191C15.3234 10.1831 15.3281 10.1691 15.3281 9.67689V9.17532L15.8344 9.20345C18.6234 9.37689 21.1687 11.4488 21.9656 14.2003C22.0781 14.5941 22.2328 15.4238 22.2 15.4566C22.1906 15.4706 22.0312 15.4003 21.8484 15.3113C21.375 15.0675 21.1172 15.0909 21 15.3769C20.9531 15.4894 20.9531 15.5456 21 15.6628C21.0516 15.7847 21.1734 15.8644 21.8016 16.1784C22.5328 16.5394 22.6453 16.5816 22.8047 16.5159C22.8516 16.5019 23.1375 16.1503 23.4422 15.7425C24.0516 14.9316 24.0891 14.8284 23.8828 14.6081C23.8031 14.5238 23.7234 14.4863 23.6062 14.4863C23.4703 14.4863 23.4094 14.5238 23.2312 14.73C23.1141 14.8659 23.0156 14.9925 23.0156 15.0113C23.0156 15.0347 22.9969 15.0488 22.9687 15.0488C22.9453 15.0488 22.9219 14.9972 22.9219 14.9316C22.9219 14.5566 22.5844 13.4878 22.2422 12.7753C21.1922 10.5956 19.1953 9.03939 16.8047 8.53314C15.8531 8.33157 14.4187 8.3597 13.4297 8.59876L12.9891 8.70657L12.975 5.13939L12.9609 1.5722L12.8016 1.2347C12.5203 0.634701 11.9531 0.198763 11.3109 0.0956383C10.9828 0.0393867 1.95469 0.044075 1.63125 0.0956383ZM11.3531 0.911263C11.6391 0.995638 11.8828 1.18782 12.0375 1.45033C12.1594 1.65657 12.1641 1.69407 12.1781 2.44876L12.1969 3.23626H6.49687H0.796875V2.49564C0.796875 1.79251 0.801562 1.74095 0.91875 1.51126C1.06406 1.22064 1.30781 1.00501 1.59375 0.915951C1.90312 0.822201 11.0344 0.812824 11.3531 0.911263ZM12.1875 6.49407V9.00189L11.7984 9.19407C11.2922 9.4472 10.7437 9.80814 10.3172 10.1644C10.125 10.3238 9.96562 10.4503 9.95625 10.4409C9.94687 10.4316 10.0734 10.2909 10.2328 10.1222C10.7156 9.63001 10.9219 9.08626 10.9219 8.29876C10.9219 8.05032 10.8891 7.72689 10.8516 7.58158C10.5281 6.33939 9.44062 5.6597 8.50781 6.11907C7.15781 6.77532 6.89531 9.01126 8.02969 10.1503L8.31094 10.4316L8.27812 11.6034L8.24531 12.7753L8.03906 13.2909C7.65937 14.2331 7.49531 15.105 7.49531 16.1738C7.49531 17.0644 7.63125 17.9128 7.89375 18.6534C7.93594 18.7659 7.96875 18.8738 7.96875 18.8972C7.96875 18.9206 6.39844 18.9394 4.38281 18.9394H0.796875V11.4628V3.98626H6.49219H12.1875V6.49407ZM9.45 6.85032C9.93281 7.08001 10.2422 7.88626 10.1297 8.60814C10.0594 9.05345 9.83906 9.49407 9.6 9.64876C9.49219 9.71907 9.34687 9.83626 9.26719 9.90657L9.12656 10.0378L9.15937 10.6894C9.18281 11.1206 9.17344 11.3456 9.14062 11.3691C9.10781 11.3878 9.09375 11.1769 9.09375 10.7175C9.09375 10.3472 9.07969 10.005 9.06562 9.96282C9.04687 9.92064 8.95781 9.85032 8.86406 9.79876C8.62031 9.67689 8.41406 9.44251 8.26406 9.11907C8.14219 8.86126 8.13281 8.79095 8.13281 8.29876C8.13281 7.78314 8.14219 7.74095 8.28281 7.45501C8.5875 6.83626 8.99062 6.62532 9.45 6.85032ZM8.62031 20.1909C8.97656 20.7769 9.39844 21.2972 9.89531 21.7753C10.2797 22.1409 11.1187 22.7831 11.2125 22.7831C11.2312 22.7831 11.25 22.8019 11.25 22.83C11.25 22.8628 9.62812 22.8769 6.48281 22.8769C1.78125 22.8769 1.70625 22.8722 1.5 22.7784C1.21875 22.6519 1.04062 22.4784 0.909375 22.1972C0.801562 21.9722 0.796875 21.9206 0.796875 20.8472V19.7363L4.575 19.7456L8.35781 19.7597L8.62031 20.1909Z" fill="#454545"/>
<path d="M4.4718 1.7518C4.30305 1.89242 4.28899 2.15492 4.44368 2.30961C4.5468 2.41273 4.55618 2.41273 6.41712 2.4268C7.56555 2.43617 8.32962 2.42211 8.40462 2.39398C8.5593 2.33305 8.68587 2.10336 8.64368 1.94398C8.62962 1.87836 8.5593 1.78461 8.49837 1.73305C8.38118 1.64398 8.30149 1.6393 6.48743 1.6393H4.59837L4.4718 1.7518Z" fill="#454545"/>
<path d="M3.08438 6.42934C2.93438 6.51371 2.90156 6.64965 2.76094 7.77465C2.61094 8.93715 2.61094 9.17152 2.76094 9.46215C2.91563 9.76215 3.36563 10.1278 3.58594 10.1278C3.675 10.1278 3.675 9.83246 3.54375 13.8028C3.48281 15.5793 3.45 17.0981 3.46875 17.1778C3.64219 17.9465 4.52344 18.2559 5.12813 17.759C5.22656 17.6793 5.34844 17.5246 5.39531 17.4215C5.50781 17.1731 5.50781 16.8496 5.39062 13.3856C5.33906 11.8903 5.29688 10.5496 5.29688 10.409V10.1512L5.52656 10.0668C5.84063 9.95902 6.15938 9.59809 6.2625 9.25121C6.33281 9.00746 6.32813 8.94652 6.19219 7.83559C6.1125 7.1934 6.0375 6.63559 6.01875 6.5934C5.98594 6.50434 5.76094 6.37777 5.63906 6.37777C5.51719 6.37777 5.34375 6.50902 5.29688 6.6309C5.27344 6.69652 5.31094 7.14652 5.4 7.84965C5.57812 9.26059 5.56406 9.30277 4.97344 9.38246C4.79531 9.4059 4.68281 9.45277 4.60313 9.53715L4.48125 9.65434L4.60313 13.3246C4.73438 17.3137 4.73906 17.2059 4.47656 17.2059C4.24219 17.2059 4.20469 17.1028 4.2375 16.5075C4.25156 16.2075 4.3125 14.5575 4.36406 12.8325C4.45781 9.91684 4.45781 9.69652 4.3875 9.58402C4.29375 9.4434 4.13438 9.37777 3.89531 9.37777C3.69375 9.37777 3.49219 9.22309 3.44531 9.03559C3.42656 8.96996 3.46875 8.48715 3.53438 7.95746C3.68906 6.7434 3.68906 6.64027 3.53906 6.49496C3.42188 6.37309 3.225 6.34496 3.08438 6.42934Z" fill="#454545"/>
<path d="M4.27969 6.48757L4.14844 6.60007V7.70632C4.14844 8.78445 4.15313 8.81257 4.25156 8.9157C4.40625 9.07038 4.66875 9.05632 4.80938 8.88757C4.92188 8.76101 4.92188 8.74695 4.92188 7.73445C4.92188 6.64226 4.89844 6.5157 4.70156 6.42663C4.53281 6.34695 4.425 6.3657 4.27969 6.48757Z" fill="#454545"/>
<path d="M6.05137 20.162C5.71856 20.2277 5.40918 20.4667 5.23575 20.7902C5.1045 21.0386 5.09512 21.5589 5.22168 21.798C5.50762 22.3417 6.06543 22.5995 6.61856 22.4355C7.60762 22.1448 7.767 20.7714 6.86231 20.2933C6.59043 20.148 6.33731 20.1058 6.05137 20.162ZM6.58106 21.048C6.72637 21.1886 6.70762 21.4558 6.54356 21.5917C6.40293 21.7136 6.28106 21.7323 6.12637 21.648C5.86387 21.512 5.83106 21.2542 6.04668 21.0386C6.16856 20.9214 6.21543 20.9027 6.342 20.9261C6.42637 20.9448 6.53418 20.9964 6.58106 21.048Z" fill="#454545"/>
<path d="M14.6995 11.5858L14.5777 11.6796V13.4327V15.1858L14.4511 15.2561C14.2824 15.3405 14.0949 15.5468 13.9917 15.7483C13.9308 15.8655 13.9167 15.9921 13.9308 16.2218C13.9495 16.5968 14.1089 16.8686 14.3995 17.0327L14.5777 17.1358V18.453C14.5777 19.714 14.5824 19.7749 14.6761 19.8968C14.8027 20.0608 15.0792 20.0655 15.2245 19.9108C15.3277 19.803 15.3277 19.7749 15.3277 18.4671V17.1265L15.5011 17.014C16.0917 16.6296 16.1058 15.7343 15.5339 15.3218L15.3277 15.1765V13.4468V11.7171L15.2105 11.6046C15.0699 11.4593 14.8683 11.4546 14.6995 11.5858ZM15.0933 15.9874C15.1449 16.039 15.187 16.1186 15.187 16.1608C15.187 16.2686 15.0511 16.4093 14.9433 16.4093C14.8402 16.4093 14.6714 16.2499 14.6714 16.1515C14.6714 16.114 14.7136 16.039 14.7652 15.9874C14.8167 15.9358 14.8917 15.8936 14.9292 15.8936C14.9667 15.8936 15.0417 15.9358 15.0933 15.9874Z" fill="#454545"/>
</g>
<defs>
<clipPath id="clip0_8389_5263">
<rect width="24" height="24" fill="white"/>
</clipPath>
</defs>
</svg>
