<svg width="24" height="24" viewBox="0 0 24 24" fill="none" xmlns="http://www.w3.org/2000/svg">
<path d="M3.58111 0.110371C3.22934 0.313406 3.07457 0.828078 3.25748 1.19638C3.2997 1.28137 4.2049 2.23044 5.27427 3.307C6.34363 4.38829 7.21601 5.29486 7.21601 5.32792C7.21601 5.35625 7.15503 5.45068 7.0753 5.53567L6.93928 5.69149L4.81463 3.55253C2.93386 1.66383 2.67121 1.4183 2.54458 1.4183C2.36166 1.4183 2.1975 1.58828 2.1975 1.77715C2.1975 1.8952 2.48829 2.20683 4.31747 4.04832L6.43743 6.18256L6.30142 6.32893L6.1654 6.4753L4.05013 4.35051C2.89165 3.18424 1.89264 2.21628 1.84105 2.20211C1.63468 2.14073 1.40017 2.34848 1.40017 2.5893C1.40017 2.63179 2.36166 3.63753 3.53421 4.81797L5.66824 6.97109L5.53692 7.09858C5.46656 7.1694 5.36338 7.22606 5.31179 7.22606C5.25551 7.22606 4.50977 6.50836 3.27625 5.26653C1.18442 3.16063 1.14221 3.12285 0.738852 3.17951C0.471511 3.21729 0.20886 3.40616 0.0916053 3.64697C-0.0256495 3.89722 -0.0303397 4.11915 0.0775347 4.35523C0.147888 4.50633 3.6796 8.77952 4.26119 9.41696C4.55667 9.74276 5.0679 10.0638 5.53223 10.2244C5.90744 10.3519 5.98249 10.3613 7.09875 10.3944C8.76846 10.4463 8.83881 10.4699 9.83782 11.537C10.0723 11.7873 10.1614 11.8534 10.274 11.8534C10.4429 11.8534 10.6398 11.6645 10.6398 11.504C10.6398 11.2726 9.66898 10.2574 9.23279 10.0355C8.64651 9.73804 8.55271 9.71915 7.26291 9.68138C6.24514 9.65305 6.02939 9.62944 5.80895 9.54917C5.45718 9.4264 5.21329 9.2942 5.00224 9.12421C4.73958 8.91645 0.743542 4.11442 0.743542 4.01054C0.743542 3.95861 0.776373 3.92083 0.827965 3.92083C0.870177 3.92083 1.73786 4.75658 2.78378 5.81426C3.81562 6.85304 4.74897 7.75962 4.85684 7.82101C5.1148 7.97682 5.47594 7.98627 5.7386 7.84934C6.00125 7.71241 7.75538 5.92758 7.84918 5.70566C7.93361 5.4979 7.9383 5.29014 7.86794 5.03045C7.82573 4.86991 7.51618 4.53466 5.84647 2.84899C3.92818 0.917792 3.74995 0.710034 3.99384 0.710034C4.0642 0.710034 8.90447 4.79436 9.04049 4.96906C9.2281 5.20987 9.43916 5.61122 9.52358 5.90397C9.59862 6.15422 9.62207 6.43281 9.65022 7.39133C9.68774 8.67092 9.72057 8.84091 10.0114 9.34141C10.2787 9.80415 11.2074 10.6729 11.4325 10.6729C11.6013 10.6729 11.7655 10.4982 11.7655 10.3094C11.7655 10.1913 11.7045 10.1063 11.4512 9.86553C10.7571 9.20448 10.6117 9.01561 10.4616 8.57177C10.4147 8.44428 10.3819 8.00515 10.3584 7.20246C10.3303 6.17311 10.3115 5.97952 10.2177 5.69149C10.077 5.24292 9.82375 4.7613 9.57986 4.49216C9.34535 4.22775 4.60357 0.204806 4.38782 0.0820408C4.17676 -0.0312815 3.81562 -0.0218391 3.58111 0.110371Z" fill="#454545"/>
<path d="M21.4274 0.307554C21.3899 0.316998 21.1976 0.35005 21.0053 0.378382C20.0766 0.534199 19.0354 0.987488 18.2521 1.58243C17.7315 1.97434 16.1087 3.42864 15.9258 3.66473C15.7007 3.94803 15.363 4.6563 15.2738 5.00571C15.2316 5.19458 15.2176 5.48733 15.2363 6.0681C15.2785 7.56962 15.2645 7.83404 15.1472 8.13623C15.0862 8.28733 14.9408 8.53286 14.8142 8.67924C14.6923 8.82561 12.1033 11.5217 9.06403 14.6664C6.0201 17.8111 3.39359 20.5356 3.22005 20.7197C2.84484 21.1211 2.73696 21.3194 2.66661 21.7255C2.52122 22.5565 2.99962 23.4725 3.75943 23.8219C4.42074 24.1288 5.25091 24.0344 5.73869 23.6047C5.83718 23.515 8.27608 20.5025 11.1559 16.9045C14.0403 13.3018 16.5167 10.2516 16.6575 10.1194C17.1265 9.69441 17.3657 9.61887 18.6133 9.5386C19.6076 9.47249 19.9359 9.40166 20.48 9.13252C21.1131 8.82561 21.4696 8.44787 22.281 7.24854C22.6281 6.72915 23.022 6.11532 23.1534 5.88395C23.7959 4.76017 24.1008 3.32948 23.9695 2.04044C23.9038 1.38884 23.8288 1.14803 23.6083 0.855278C23.2519 0.397268 22.947 0.283945 22.1121 0.288668C21.7745 0.293388 21.4649 0.302834 21.4274 0.307554ZM22.7875 1.09609C23.0971 1.25663 23.2003 1.49272 23.2519 2.18209C23.355 3.4428 23.0502 4.70823 22.3936 5.76119C21.9433 6.48834 21.0709 7.7396 20.8692 7.95208C20.4706 8.37704 19.8937 8.67924 19.3402 8.75478C19.2371 8.76895 18.7821 8.80672 18.3319 8.83505C17.1265 8.9106 16.5918 9.11364 16.0243 9.70858C15.907 9.83607 13.4541 12.8816 10.5743 16.4796C5.84187 22.3912 5.31657 23.0334 5.10082 23.1467C4.52393 23.4631 3.7735 23.2034 3.49209 22.5943C3.35138 22.3015 3.32793 21.8671 3.4358 21.6121C3.47332 21.5177 5.65426 19.2229 8.83421 15.9319C11.7703 12.8958 14.4718 10.1052 14.833 9.72747C15.3395 9.20335 15.5365 8.96254 15.6678 8.70757C15.9774 8.11735 16.0008 7.9332 15.9633 6.5875C15.9352 5.55815 15.9399 5.36928 16.0102 5.10014C16.0993 4.75073 16.301 4.34938 16.5121 4.08969C16.6481 3.92442 17.7972 2.88564 18.4163 2.37096C19.4716 1.49272 20.7754 1.0111 22.1309 0.996931C22.5108 0.99221 22.614 1.0111 22.7875 1.09609Z" fill="#454545"/>
<path d="M15.0581 13.5968C14.908 13.7385 14.9174 13.9935 15.0862 14.1587C15.1566 14.2248 16.9576 15.8822 19.0869 17.8322C22.2012 20.6842 22.9751 21.4208 23.0502 21.5813C23.1721 21.8552 23.1627 22.2424 23.0267 22.5446C22.825 22.9931 22.5014 23.2245 22.0042 23.267C21.4227 23.3142 21.6619 23.5409 17.9941 19.4849C13.8855 14.9378 14.1341 15.2022 13.9418 15.2022C13.7542 15.2022 13.5947 15.3533 13.5947 15.5375C13.5947 15.6083 13.651 15.7358 13.7214 15.8255C13.9934 16.1513 20.555 23.3992 20.7191 23.5503C21.2397 24.0319 22.0652 24.1311 22.7641 23.8006C23.8428 23.2953 24.2086 21.8221 23.4817 20.9297C23.3316 20.7503 17.5579 15.4194 15.6209 13.6771C15.3958 13.4788 15.2175 13.4505 15.0581 13.5968Z" fill="#454545"/>
</svg>
