<svg width="24" height="24" viewBox="0 0 24 24" fill="none" xmlns="http://www.w3.org/2000/svg">
<g clip-path="url(#clip0_8395_6573)">
<path d="M14.9641 0.764923C15.4356 0.182882 16.6575 0.310582 16.888 1.21084C16.9087 1.29142 16.9202 1.37669 16.9203 1.4598C16.9224 2.64725 16.9217 3.8347 16.9217 5.02215C16.9217 5.06902 16.9199 5.11598 16.9221 5.16276C16.9343 5.42684 17.1028 5.63115 17.3044 5.62743C17.4942 5.62394 17.6586 5.42106 17.6709 5.1708C17.6752 5.08507 17.6717 4.99897 17.6717 4.91303C17.6717 3.79589 17.7027 2.67755 17.6593 1.56209C17.6359 0.962975 18.2134 0.387806 18.807 0.406703C19.2865 0.421965 19.802 0.792336 19.8909 1.21391C19.9082 1.29577 19.9204 1.38051 19.9205 1.46393C19.9222 3.09667 19.9277 4.72945 19.9185 6.36214C19.9153 6.93477 19.6492 7.39659 19.2455 7.79331C18.9627 8.07133 18.618 8.21992 18.2541 8.3493C17.7757 8.51935 17.3541 8.94567 17.348 9.5362C17.3338 10.9075 17.3435 12.2791 17.3435 13.6524C17.5531 13.5594 17.7876 13.4296 18.0379 13.3484C19.424 12.8985 20.8413 13.2454 21.786 14.369C22.2757 14.9514 22.5558 15.6342 22.549 16.4162C22.5457 16.8029 22.5476 17.1863 22.4221 17.5606C22.4053 17.6108 22.4783 17.717 22.5368 17.7622C22.7969 17.9631 23.0837 18.1322 23.3285 18.3493C23.5643 18.5586 23.6857 18.8362 23.6755 19.171C23.6607 19.6627 23.6576 20.1557 23.6758 20.6472C23.6932 21.1172 23.4537 21.4381 23.1134 21.7027C22.2903 22.3427 21.3107 22.6301 20.3231 22.8676C19.4992 23.0657 18.6609 23.2134 17.8222 23.338C17.1451 23.4385 16.4583 23.4765 15.775 23.5322C15.2819 23.5725 14.7878 23.615 14.2935 23.6241C12.8905 23.6497 11.487 23.6825 10.0842 23.6649C9.31462 23.6553 8.54598 23.5521 7.7773 23.4865C7.27854 23.444 6.77724 23.4147 6.28291 23.3406C5.58749 23.2362 4.89457 23.1099 4.20589 22.9673C3.32247 22.7844 2.45519 22.5382 1.64788 22.1253C1.17445 21.8832 0.715403 21.6092 0.487932 21.0881C0.449218 20.9994 0.425715 20.8967 0.424597 20.8002C0.418538 20.2768 0.442232 19.7523 0.41584 19.2302C0.390407 18.7271 0.64035 18.3697 1.01008 18.1179C1.40443 17.8493 1.85664 17.6666 2.27763 17.4355C2.36025 17.3902 2.45734 17.3051 2.47703 17.2216C2.63847 16.5374 2.93367 15.9343 3.40837 15.4038C3.98725 14.7569 4.68853 14.3438 5.52826 14.1638C5.75755 14.1147 5.85009 14.0041 5.91488 13.7818C6.03391 13.3736 6.05174 12.9644 6.04901 12.546C6.0421 11.4836 6.04487 10.4211 6.04753 9.35867C6.04878 8.85527 5.96784 8.38014 5.61396 7.99118C5.40297 7.75927 5.16318 7.54868 4.98118 7.29618C4.42166 6.51992 4.1826 5.64268 4.16479 4.68563C4.14946 3.86121 4.27168 3.07156 4.6471 2.34017C5.10488 1.4483 5.76548 0.760445 6.77665 0.512988C7.76858 0.270242 8.68166 0.443752 9.47767 1.11308C10.3118 1.81444 10.7392 2.72827 10.8778 3.79307C11.014 4.83969 10.9148 5.8537 10.4231 6.80214C10.2079 7.21718 9.92099 7.57887 9.57456 7.90536C9.29272 8.17097 9.0729 8.49843 9.08722 8.93492C9.10623 9.51452 9.0919 10.0952 9.0919 10.733C9.23761 10.6028 9.36974 10.4848 9.50187 10.3668C9.5272 10.3413 9.55252 10.3158 9.57785 10.2902C9.618 10.3672 9.64233 10.4599 9.7007 10.5188C10.4097 11.235 11.1205 11.9494 11.8408 12.6541C11.9228 12.7343 12.0632 12.786 12.1803 12.7939C12.8804 12.8408 13.5817 12.871 14.2963 12.9075C14.2963 11.8968 14.3002 10.8277 14.2921 9.75867C14.2909 9.59363 14.2494 9.42427 14.2001 9.26512C14.0572 8.80408 13.7602 8.49211 13.2928 8.33763C12.4652 8.06412 11.9076 7.52486 11.6975 6.66079C11.6794 6.58675 11.6728 6.50825 11.6728 6.43181C11.6714 4.76782 11.6712 3.10383 11.672 1.43983C11.6723 0.903631 12.1546 0.426138 12.6939 0.424396C13.359 0.422248 13.7285 0.664465 13.8929 1.21783C13.9165 1.29725 13.9204 1.38475 13.9206 1.46853C13.9223 2.6716 13.9205 3.87468 13.9239 5.07774C13.9242 5.18329 13.9213 5.31552 13.9792 5.38783C14.0617 5.49078 14.1978 5.60741 14.3135 5.61006C14.415 5.61239 14.5436 5.48236 14.6156 5.37956C14.6705 5.30118 14.6693 5.17393 14.6696 5.06836C14.6729 3.86529 14.6729 2.66221 14.6708 1.45914C14.6704 1.19067 14.7582 0.963068 14.9641 0.764923ZM12.8 17.1891C13.0115 16.7666 13.3169 16.4176 13.6852 16.1314C14.3109 15.6452 15.018 15.3829 15.8229 15.4209C15.8789 15.4235 15.9668 15.3918 15.9894 15.3493C16.1132 15.1162 16.2213 14.8748 16.3359 14.6338C16.3295 14.6264 16.3216 14.6105 16.3089 14.6033C14.9288 13.8171 13.4298 13.5321 11.8595 13.5516C11.8026 13.5523 11.733 13.5687 11.6915 13.6039C11.1843 14.0336 10.6072 14.3163 9.95427 14.4404C9.75817 14.4777 9.64522 14.5834 9.60999 14.7826C9.46902 15.5796 9.08281 16.2526 8.51617 16.8146C7.97815 17.3482 7.32794 17.7049 6.58096 17.8562C6.34405 17.9042 6.23139 18.0099 6.18243 18.248C5.99654 19.152 5.51059 19.88 4.77092 20.5527C4.50518 20.282 4.2481 20.0201 3.99547 19.7628C3.9616 19.9712 3.9259 20.1898 3.89058 20.4085C3.87156 20.5263 3.91602 20.6011 4.03702 20.625C4.59164 20.7347 5.14261 20.8702 5.70158 20.9489C6.62945 21.0795 7.56079 21.1918 8.49383 21.2773C9.1723 21.3395 9.85576 21.3486 10.5372 21.3767C11.0181 21.3965 11.4994 21.4205 11.9805 21.4208C12.4382 21.4211 12.896 21.3935 13.3536 21.377C13.4102 21.375 13.4666 21.3659 13.5425 21.3581C12.2411 20.2088 12.1567 18.327 12.8 17.1891ZM9.80074 6.21673C10.1449 5.47987 10.1843 4.70491 10.0859 3.91358C9.98497 3.10275 9.67093 2.39167 9.06669 1.8302C8.18888 1.01453 6.99974 0.974716 6.09765 1.7656C5.06701 2.66918 4.85277 3.88543 4.98727 5.16558C5.08205 6.06778 5.51937 6.82643 6.19728 7.45849C6.59091 7.8255 6.80291 8.31634 6.79869 8.88118C6.79152 9.8417 6.79648 10.8023 6.79721 11.7629C6.79726 11.834 6.80427 11.9051 6.80966 12.0064C6.88997 11.9089 6.93229 11.8286 6.99839 11.7821C7.36697 11.5226 7.7352 11.2616 8.11711 11.0228C8.24448 10.9431 8.30322 10.8747 8.30067 10.7199C8.29089 10.1265 8.3066 9.53269 8.29397 8.93943C8.28105 8.33264 8.51512 7.83043 8.93064 7.41474C9.27774 7.06749 9.59321 6.70457 9.80074 6.21673ZM15.852 1.22166C15.5767 1.23194 15.4228 1.41038 15.4224 1.73204C15.4208 2.95058 15.4223 4.16912 15.4204 5.38766C15.4202 5.47087 15.4055 5.55499 15.3894 5.63707C15.3074 6.05389 14.7783 6.42161 14.3281 6.44181C13.7117 6.46947 13.1314 5.89261 13.1587 5.26085C13.2058 4.16932 13.1717 3.07429 13.1717 1.98072C13.1717 1.86356 13.184 1.74458 13.1678 1.62965C13.142 1.44685 13.0572 1.28794 12.8718 1.22593C12.7031 1.16946 12.5848 1.2802 12.5041 1.40642C12.4536 1.48544 12.4246 1.59313 12.4252 1.68769C12.4359 3.2311 12.4458 4.7746 12.473 6.31778C12.4806 6.74943 12.6892 7.10526 13.0654 7.32278C13.38 7.50465 13.7428 7.60758 14.0447 7.80563C14.6427 8.19784 15.0364 8.74261 15.044 9.48975C15.0547 10.5441 15.0467 11.5987 15.0467 12.6532C15.0467 13.145 15.0467 13.145 15.5104 13.3349C15.5316 13.3436 15.5518 13.3548 15.5727 13.364C15.8906 13.5037 16.2085 13.6432 16.5467 13.7916C16.5467 13.6752 16.5467 13.5897 16.5467 13.5041C16.5467 12.145 16.5464 10.7859 16.5475 9.42672C16.5476 9.34963 16.5483 9.26986 16.5668 9.19585C16.784 8.32766 17.3416 7.78119 18.18 7.50659C18.5085 7.39898 18.7554 7.19954 18.9376 6.90478C19.1185 6.61208 19.1647 6.28611 19.1672 5.95987C19.1778 4.56956 19.1718 3.17913 19.1716 1.78875C19.1716 1.44597 19.0237 1.22211 18.7981 1.22136C18.5706 1.22059 18.4219 1.44288 18.4218 1.78595C18.4216 2.98887 18.4224 4.19179 18.4202 5.3947C18.42 5.47738 18.4083 5.56327 18.384 5.64213C18.2133 6.19629 17.8639 6.42584 17.2031 6.42439C16.6478 6.42318 16.1722 5.94938 16.1719 5.39496C16.1713 4.19205 16.1692 2.98912 16.1738 1.78622C16.1748 1.5435 16.1096 1.34782 15.852 1.22166ZM13.4759 22.1744C11.8341 22.1431 10.1923 22.1132 8.5506 22.079C8.33476 22.0745 8.11818 22.0579 7.90398 22.0308C7.20392 21.9422 6.50221 21.8619 5.80602 21.7485C5.09777 21.6331 4.38986 21.5054 3.69167 21.3411C2.81483 21.1348 1.95853 20.8587 1.18525 20.3622C1.15905 20.6931 1.17924 20.8677 1.42603 21.0301C1.81852 21.2883 2.23366 21.5319 2.6709 21.6985C3.80382 22.1302 4.99062 22.3584 6.192 22.5004C7.10086 22.6077 8.0123 22.6939 8.92331 22.7819C9.22359 22.811 9.526 22.8199 9.82767 22.8324C10.6103 22.8646 11.3929 22.9 12.1758 22.9205C12.4377 22.9273 12.7005 22.8899 12.9631 22.8781C13.691 22.8453 14.4203 22.8322 15.1468 22.7798C15.9604 22.7211 16.7742 22.6488 17.5829 22.5437C18.3255 22.4472 19.0655 22.3192 19.7992 22.1686C20.6606 21.9918 21.5058 21.7494 22.2837 21.3232C22.6528 21.121 22.972 20.8725 22.9135 20.3638C22.7528 20.4554 22.6057 20.5511 22.4489 20.6265C21.7309 20.972 20.9735 21.1938 20.201 21.3884C18.6845 21.7705 17.1376 21.9282 15.5889 22.0747C14.9031 22.1395 14.2115 22.143 13.4759 22.1744ZM14.0937 20.765C14.1258 20.7852 14.1601 20.8026 14.1896 20.8261C14.5523 21.1152 14.9413 21.331 15.4287 21.2841C15.7736 21.251 16.1185 21.2168 16.4641 21.1916C16.7015 21.1742 16.9248 21.1398 17.1379 21.0105C17.6183 20.7191 17.958 20.3182 18.174 19.8102C17.1723 19.4542 16.4444 18.8206 16.0284 17.8434C16.0067 17.7926 15.9423 17.7338 15.8906 17.7259C15.1793 17.617 14.5309 18.3478 14.7521 19.09C14.9026 19.5949 15.2622 19.8526 15.7811 19.8939C15.7811 20.1565 15.7811 20.4097 15.7811 20.6604C14.9499 20.7698 14.0489 20.0301 13.9288 19.138C13.8543 18.5837 13.9312 18.039 14.3151 17.594C14.6979 17.1505 15.1796 16.8912 15.7794 16.9173C15.7794 16.6727 15.7794 16.4511 15.7794 16.2108C15.615 16.2238 15.4667 16.2222 15.3238 16.2491C14.6906 16.3685 14.1796 16.6891 13.7711 17.1884C13.4721 17.5539 13.2786 17.9694 13.2253 18.4291C13.1204 19.3328 13.4016 20.1131 14.0937 20.765ZM21.6063 17.4533C21.7406 17.1172 21.7561 16.7665 21.7526 16.4091C21.7459 15.7214 21.4514 15.1534 20.9813 14.6932C20.4645 14.1874 19.8286 13.9345 19.0816 13.9666C18.0135 14.0124 17.2579 14.544 16.8169 15.4735C16.3199 16.5206 16.5885 17.7587 17.5145 18.5328C18.182 19.0908 18.9382 19.2532 19.7577 19.0714C20.6371 18.8763 21.2434 18.3213 21.6063 17.4533ZM9.92639 12.0356C9.94063 12.0178 9.96921 11.9865 9.96705 11.9842C9.80128 11.8086 9.63479 11.6337 9.46296 11.4641C9.44129 11.4428 9.38574 11.4367 9.35402 11.4475C9.00145 11.5672 8.62172 11.6417 8.30468 11.8245C7.47508 12.3027 6.88663 12.986 6.69959 13.9614C6.59844 14.4889 6.34109 14.8469 5.75118 14.9271C5.44914 14.9682 5.14128 15.0918 4.87468 15.2452C4.02386 15.7348 3.46767 16.4629 3.24122 17.427C3.21824 17.5248 3.18528 17.6637 3.23263 17.7265C3.37383 17.9137 3.55272 18.0725 3.7314 18.2575C3.79352 18.1427 3.84345 18.0728 3.87073 17.995C3.91604 17.8658 3.95358 17.7329 3.9826 17.599C4.20923 16.5534 4.83863 15.8702 5.87632 15.6367C6.79317 15.4304 7.23417 14.8808 7.42308 13.9865C7.57789 13.2537 8.07502 12.7239 8.77224 12.4267C9.13442 12.2724 9.5199 12.1727 9.92639 12.0356ZM8.13229 14.4404C8.03638 14.9801 7.77465 15.4311 7.37743 15.8004C7.01534 16.137 6.56965 16.3066 6.09172 16.4107C5.44726 16.5511 5.01622 16.9369 4.82783 17.5738C4.6992 18.0087 4.62031 18.4617 4.33616 18.8052C4.504 18.9774 4.65986 19.1372 4.82152 19.303C5.11481 18.9592 5.30585 18.5603 5.38594 18.1197C5.49172 17.5378 5.75409 17.1998 6.21145 17.1125C7.50084 16.8664 8.3451 16.1089 8.76444 14.8726C8.83027 14.6785 8.85036 14.4685 8.9201 14.2762C9.07316 13.8541 9.43977 13.7243 9.83615 13.6428C10.2896 13.5496 10.7049 13.3758 11.0529 13.0659C10.8866 12.8956 10.729 12.7342 10.6276 12.6304C10.1754 12.7868 9.76688 12.9434 9.3491 13.0693C8.6721 13.2732 8.28166 13.7198 8.13229 14.4404ZM19.3821 19.9244C19.2962 19.9244 19.2072 19.9106 19.1254 19.9289C19.0622 19.9431 18.9822 19.9837 18.9541 20.0363C18.801 20.3227 18.6617 20.6165 18.5179 20.9072C18.5646 20.9072 18.6291 20.9181 18.6887 20.9055C19.7033 20.6919 20.7268 20.5059 21.6899 20.1057C22.07 19.9478 22.4619 19.7928 22.7465 19.4675C22.8894 19.3043 22.9396 19.1444 22.7862 18.9542C22.5785 18.6966 22.3005 18.5533 22.0125 18.4221C21.3161 19.4505 20.2657 19.9038 19.3821 19.9244ZM3.28028 19.342C3.39791 19.0998 3.29597 18.9362 3.10531 18.7814C2.94283 18.6494 2.80102 18.4909 2.65746 18.3372C2.56602 18.2393 2.48071 18.205 2.35432 18.2799C2.04607 18.4625 1.72565 18.6254 1.42312 18.8168C1.19784 18.9593 1.14858 19.2337 1.30178 19.4147C1.39033 19.5194 1.49255 19.6272 1.61177 19.6887C2.08365 19.9321 2.56467 20.1577 3.05792 20.3976C3.13926 20.0184 3.20768 19.6995 3.28028 19.342Z" fill="#454545"/>
<path d="M10.5915 15.4256C10.4457 15.4256 10.3226 15.4256 10.1855 15.4256C10.1855 15.1721 10.1855 14.9358 10.1855 14.6875C10.4236 14.6875 10.6544 14.6875 10.9034 14.6875C10.9034 14.9207 10.9034 15.1572 10.9034 15.4256C10.81 15.4256 10.7121 15.4256 10.5915 15.4256Z" fill="#454545"/>
<path d="M12.7357 15.0498C12.7762 15.2885 12.7945 15.5243 12.8142 15.7786C12.5494 15.7786 12.3131 15.7786 12.0615 15.7786C12.0615 15.5437 12.0615 15.3074 12.0615 15.0469C12.282 15.0469 12.4978 15.0469 12.7357 15.0498Z" fill="#454545"/>
<path d="M10.9219 17.764C10.9219 17.603 10.9219 17.4644 10.9219 17.3125C11.1766 17.3125 11.4129 17.3125 11.6606 17.3125C11.6606 17.5525 11.6606 17.7833 11.6606 18.0316C11.4252 18.0316 11.1889 18.0316 10.9219 18.0316C10.9219 17.9515 10.9219 17.869 10.9219 17.764Z" fill="#454545"/>
<path d="M8.86705 18.4224C8.74383 18.4295 8.66166 18.4271 8.66946 18.2828C8.67988 18.0898 8.67204 17.8959 8.67204 17.6875C8.92349 17.6875 9.15978 17.6875 9.40907 17.6875C9.40907 17.9228 9.40907 18.1537 9.40907 18.4224C9.23963 18.4224 9.06452 18.4224 8.86705 18.4224Z" fill="#454545"/>
<path d="M7.17237 19.2781C7.20983 19.2282 7.24592 19.1782 7.28392 19.1767C7.48529 19.1688 7.68714 19.173 7.9052 19.173C7.9052 19.421 7.9052 19.6574 7.9052 19.9082C7.66832 19.9082 7.43203 19.9082 7.17188 19.9082C7.17188 19.7011 7.17187 19.5008 7.17237 19.2781Z" fill="#454545"/>
<path d="M9.36083 20.6672C9.12868 20.6702 8.91871 20.6702 8.69043 20.6702C8.69043 20.427 8.69043 20.1905 8.69043 19.9375C8.92139 19.9375 9.15773 19.9375 9.4362 19.9375C9.41831 20.182 9.40067 20.4231 9.36083 20.6672Z" fill="#454545"/>
<path d="M11.2968 20.675C11.1665 20.675 11.0586 20.675 10.9365 20.675C10.9365 20.4228 10.9365 20.1865 10.9365 19.9375C11.1727 19.9375 11.4036 19.9375 11.6532 19.9375C11.6532 20.1689 11.6532 20.4055 11.6532 20.675C11.546 20.675 11.4326 20.675 11.2968 20.675Z" fill="#454545"/>
<path d="M17.8006 15.2247C18.5139 14.4815 19.7896 14.4909 20.4967 15.1717C21.2332 15.8809 21.2236 17.1428 20.5789 17.841C19.862 18.6173 18.6104 18.6035 17.8949 17.9684C17.1174 17.2782 17.0782 15.9687 17.8006 15.2247ZM19.9698 17.274C20.1864 17.0692 20.2418 16.8125 20.2562 16.5223C20.2783 16.0776 19.8912 15.6022 19.4279 15.4807C18.9734 15.3615 18.4511 15.5974 18.2238 16.0177C17.951 16.5224 18.0817 17.1084 18.5585 17.4539C18.9237 17.7185 19.6135 17.7192 19.9698 17.274Z" fill="#454545"/>
</g>
<defs>
<clipPath id="clip0_8395_6573">
<rect width="24" height="24" fill="white"/>
</clipPath>
</defs>
</svg>
