<svg width="24" height="24" viewBox="0 0 24 24" fill="none" xmlns="http://www.w3.org/2000/svg">
<g clip-path="url(#clip0_8389_5550)">
<path d="M5.87823 0.309376C5.37198 0.496876 5.10011 0.914064 5.06261 1.57031L5.03917 1.99219L4.59386 2.01563C4.06417 2.04844 3.85792 2.1375 3.5673 2.46563C3.22042 2.86406 3.23448 2.63438 3.23448 7.5C3.23448 12.2719 3.22042 12.0469 3.51105 12.0469C3.81105 12.0469 3.7923 12.3281 3.80636 7.46719C3.82042 3.07031 3.82042 3.05156 3.91886 2.92031C4.11573 2.65781 4.28917 2.57813 4.6923 2.57813H5.06261V3.07969C5.06261 3.51563 5.08136 3.61875 5.17511 3.82031C5.53605 4.58438 6.46417 4.78594 7.07823 4.23281C7.41105 3.9375 7.5048 3.68906 7.53761 3.07969L7.56105 2.57813H8.20792H8.85948V3.0375C8.85948 3.58125 8.93448 3.84375 9.16886 4.11563C9.74542 4.79063 10.7954 4.65469 11.1892 3.85313C11.3017 3.62344 11.3204 3.51563 11.3392 3.07969L11.3532 2.57813H12.0001H12.647L12.661 3.07969C12.6798 3.51563 12.6985 3.62344 12.811 3.85313C13.2048 4.65469 14.2548 4.79063 14.8314 4.11563C15.0657 3.84375 15.1407 3.58125 15.1407 3.0375V2.57813H15.7923H16.4392L16.4626 3.07969C16.4814 3.46875 16.5142 3.6375 16.5939 3.81094C16.7204 4.08281 17.0814 4.41563 17.3345 4.49063C17.9439 4.67344 18.5767 4.38281 18.8392 3.79688C18.9189 3.62813 18.9376 3.4875 18.9376 3.07969V2.57813H19.3079C19.711 2.57813 19.8845 2.65781 20.0814 2.92031L20.1798 3.05156L20.1939 12.7875C20.2079 23.6344 20.2314 22.7859 19.8845 23.0531L19.7204 23.1797H12.0048H4.28917L4.1298 23.0672C4.04542 23.0063 3.93292 22.8703 3.88605 22.7625C3.80167 22.5797 3.79698 22.3594 3.79698 18.2203C3.79698 13.9359 3.79698 13.875 3.70323 13.7813C3.58136 13.6594 3.44542 13.6641 3.32823 13.7813C3.23448 13.875 3.23448 13.9125 3.24386 18.3422L3.25792 22.8047L3.36105 22.9969C3.52042 23.2922 3.67042 23.4516 3.94698 23.6016L4.19542 23.7422H12.0001H19.8048L20.0439 23.6156C20.3064 23.4797 20.4798 23.2969 20.6392 22.9969L20.7423 22.8047L20.7564 12.9844C20.7704 2.025 20.7939 2.87813 20.4329 2.46563C20.1423 2.1375 19.936 2.04844 19.4064 2.01563L18.961 1.99219L18.9376 1.57031C18.9095 1.06875 18.7876 0.782814 18.5064 0.539064C17.9017 0.0234394 17.0064 0.201565 16.6267 0.914064C16.5517 1.05 16.5189 1.21875 16.5001 1.54688L16.4767 1.99219L15.8157 2.00625L15.1548 2.02031L15.1314 1.57969C15.1126 1.20938 15.0845 1.10156 14.972 0.890627C14.5595 0.135939 13.5892 0.0187511 13.0126 0.656252C12.7689 0.928127 12.6939 1.12969 12.6657 1.60313L12.6423 2.01563H12.0001H11.3579L11.3345 1.60313C11.3064 1.12969 11.2314 0.928127 10.9876 0.656252C10.411 0.0187511 9.44073 0.135939 9.02355 0.895313C8.90636 1.11094 8.88292 1.20938 8.86886 1.58438L8.85011 2.02031L8.18448 2.00625L7.52355 1.99219L7.50011 1.54688C7.47198 1.05938 7.40636 0.881252 7.15323 0.618752C6.84386 0.285938 6.29542 0.15469 5.87823 0.309376ZM6.60011 0.890627C6.68448 0.942188 6.7923 1.05 6.84386 1.13438C6.92823 1.275 6.93761 1.37344 6.93761 2.36719C6.93761 3.3 6.92823 3.46875 6.85323 3.60469C6.61417 4.08281 6.00011 4.09688 5.72823 3.62813C5.62511 3.45 5.62511 3.4125 5.63448 2.33438C5.64855 1.29844 5.65323 1.21875 5.74698 1.09219C5.95323 0.81094 6.32355 0.721876 6.60011 0.890627ZM10.4064 0.900002C10.4907 0.960939 10.6079 1.06875 10.6595 1.13906C10.7532 1.27031 10.7579 1.31719 10.7439 2.38125C10.7251 3.56719 10.711 3.65156 10.472 3.83906C10.2751 3.99375 10.0454 4.01719 9.82042 3.89531C9.46886 3.70781 9.44542 3.6375 9.43136 2.4375C9.4173 1.41094 9.4173 1.37813 9.52511 1.17656C9.7173 0.815626 10.1064 0.698439 10.4064 0.900002ZM14.2876 0.932814C14.5501 1.12031 14.5876 1.3125 14.5689 2.46563C14.5548 3.63281 14.5314 3.70781 14.1798 3.89531C13.9548 4.01719 13.7251 3.99375 13.5282 3.83906C13.2892 3.65156 13.2751 3.56719 13.2564 2.38125C13.2423 1.31719 13.247 1.27031 13.3407 1.13906C13.3923 1.06875 13.5095 0.956251 13.5985 0.900002C13.7907 0.764065 14.072 0.778126 14.2876 0.932814ZM18.0892 0.923439C18.3517 1.11563 18.3751 1.24219 18.3751 2.36719C18.3751 3.34688 18.3704 3.4125 18.272 3.60938C18.0189 4.09688 17.3954 4.09688 17.147 3.60469C17.072 3.46875 17.0626 3.3 17.0626 2.3625C17.0626 1.3125 17.0673 1.275 17.1704 1.12031C17.3814 0.801563 17.8032 0.712502 18.0892 0.923439Z" fill="black"/>
<path d="M9.47852 5.60625C9.33789 5.7 9.33789 5.925 9.47852 6.01875C9.57227 6.08437 9.89102 6.09375 12.0004 6.09375C14.6629 6.09375 14.6254 6.09843 14.6254 5.8125C14.6254 5.52656 14.6629 5.53125 12.0004 5.53125C9.89102 5.53125 9.57227 5.54062 9.47852 5.60625Z" fill="black"/>
<path d="M7.61218 7.9125C7.49968 7.9875 7.44812 8.15156 7.50437 8.25937C7.53718 8.32031 7.58406 8.38125 7.61218 8.4C7.64031 8.41875 9.61374 8.4375 11.9997 8.4375C14.3856 8.4375 16.3591 8.41875 16.3872 8.4C16.4153 8.38125 16.4622 8.32031 16.495 8.25937C16.5512 8.15156 16.4997 7.9875 16.3872 7.9125C16.3591 7.89375 14.3856 7.875 11.9997 7.875C9.61374 7.875 7.64031 7.89375 7.61218 7.9125Z" fill="black"/>
<path d="M9.19727 11.304C8.92071 11.4118 8.4754 11.7962 8.20352 12.1665C7.42071 13.2306 6.99415 14.8571 7.24258 15.8228C7.44883 16.6103 8.14258 17.3462 8.92071 17.5993C8.99571 17.6228 9.0004 17.7446 9.0004 19.2634V20.904L9.10352 20.9743C9.24883 21.0774 10.2051 21.0821 10.341 20.9837C10.4254 20.9181 10.4301 20.829 10.4535 19.2728L10.477 17.6321L10.8566 17.4446C11.3582 17.1915 11.752 16.7978 12.0004 16.3009C12.1035 16.0993 12.1973 15.8321 12.216 15.7056C12.2535 15.4337 12.3051 15.4384 12.3473 15.7149C12.4363 16.2728 12.9379 16.929 13.5004 17.2243L13.8238 17.3978L13.8379 19.1556C13.852 20.8384 13.8566 20.9181 13.941 20.9837C14.0113 21.0306 14.1848 21.0493 14.5785 21.0493C15.052 21.0493 15.1363 21.0353 15.202 20.9649C15.2723 20.8853 15.2816 20.6931 15.2816 19.1368V17.3978L15.5301 17.2853C16.0926 17.0274 16.552 16.5024 16.7348 15.9071C16.8238 15.6212 16.8285 15.4712 16.8285 13.6337C16.8285 11.4634 16.8285 11.4774 16.5332 11.2993C16.2613 11.1306 15.9145 11.2056 15.7082 11.4681C15.6145 11.5853 15.6098 11.6509 15.6098 12.5931C15.6098 13.1415 15.591 13.6431 15.5629 13.7087C15.5066 13.8587 15.3098 13.8774 15.2348 13.7415C15.2066 13.6853 15.1879 13.2587 15.1879 12.6821C15.1879 11.6368 15.1691 11.5431 14.9254 11.3509C14.7754 11.2337 14.452 11.2196 14.2504 11.3228C13.9785 11.4634 13.9504 11.5946 13.9223 12.7243C13.9035 13.6337 13.8895 13.7556 13.8191 13.8024C13.7582 13.8399 13.7113 13.8399 13.6551 13.8024C13.5801 13.7556 13.566 13.6337 13.5473 12.7009C13.5285 11.7915 13.5145 11.6321 13.4395 11.5243C13.2426 11.2384 12.7738 11.1728 12.5301 11.4024C12.2863 11.6321 12.2816 11.6509 12.277 13.3009C12.2723 14.7071 12.2676 14.8103 12.2113 14.5056C12.0801 13.7603 11.7473 12.9446 11.3254 12.3118C10.6973 11.3696 9.95196 11.0181 9.19727 11.304ZM10.2332 11.9509C11.0582 12.5181 11.8598 14.4446 11.6863 15.4524C11.4988 16.5446 10.5191 17.2524 9.40821 17.1024C8.79883 17.0228 8.15196 16.5306 7.88946 15.954C7.71602 15.5696 7.6879 14.9462 7.82383 14.3837C8.08633 13.2681 8.75665 12.1618 9.34258 11.8618C9.62383 11.7212 9.94258 11.7493 10.2332 11.9509ZM16.2566 13.7228L16.2426 15.6821L16.1207 15.9446C15.952 16.3009 15.7176 16.5493 15.366 16.7415C15.0848 16.8962 15.0473 16.9009 14.5785 16.9009C14.1379 16.9009 14.0582 16.8868 13.8238 16.7696C13.4957 16.6103 13.1582 16.2587 12.9941 15.9024L12.8676 15.6353V13.7415C12.8676 12.3118 12.8816 11.8431 12.9238 11.829C12.966 11.8149 12.9848 12.0728 12.9941 12.8649C13.0082 13.8446 13.0129 13.929 13.1066 14.0462C13.2707 14.2665 13.4348 14.3603 13.6973 14.3837C13.9035 14.3978 13.9738 14.3837 14.1051 14.2899C14.452 14.0509 14.4566 14.0321 14.4848 12.8837C14.5035 12.1103 14.5223 11.8431 14.5691 11.8243C14.6113 11.8103 14.6254 12.0259 14.6254 12.7853C14.6254 13.6337 14.6395 13.7837 14.7145 13.9524C14.9582 14.4915 15.7223 14.5384 16.0363 14.0321C16.1441 13.8634 16.1488 13.8118 16.1629 12.8087C16.1723 12.2087 16.2004 11.7681 16.2238 11.7681C16.252 11.7681 16.266 12.5321 16.2566 13.7228ZM14.7191 19.0103V20.4868H14.5551H14.391V19.0103V17.5337H14.5551H14.7191V19.0103ZM9.89102 19.104V20.4868H9.72696H9.5629V19.104V17.7212H9.72696H9.89102V19.104Z" fill="black"/>
<path d="M3.39844 12.4312C3.25313 12.5109 3.23438 12.5625 3.23438 12.8672C3.23438 13.2094 3.31875 13.3594 3.51094 13.3594C3.72188 13.3594 3.79688 13.2328 3.79688 12.8766C3.79688 12.6234 3.77813 12.5437 3.70313 12.4687C3.59531 12.3609 3.53438 12.3562 3.39844 12.4312Z" fill="black"/>
</g>
<defs>
<clipPath id="clip0_8389_5550">
<rect width="24" height="24" fill="white"/>
</clipPath>
</defs>
</svg>
