<svg width="24" height="24" viewBox="0 0 24 24" fill="none" xmlns="http://www.w3.org/2000/svg">
<path d="M8.93906 0.799999C8.66719 0.870312 8.30625 1.06719 8.08125 1.27812C7.88906 1.45625 7.54688 2.0375 7.54688 2.1875C7.54688 2.23906 7.41094 2.25312 6.88594 2.25312C6.51094 2.25312 6.14062 2.27656 6.0375 2.30937C5.81719 2.375 5.47031 2.66562 5.39063 2.85781L5.33438 2.99375L4.32188 3.0125L3.30469 3.02656L2.99063 3.17656C2.55469 3.38281 2.28281 3.64531 2.07188 4.07187L1.89844 4.42812V12.1906V19.9531L2.07188 20.3094C2.28281 20.7359 2.55469 20.9984 2.99063 21.2047L3.30469 21.3547L6.975 21.3687L10.6406 21.3828L10.7578 21.2656C10.9125 21.1109 10.9125 20.8953 10.7578 20.7453L10.6453 20.6281H7.12031C4.49063 20.6281 3.54844 20.6141 3.40313 20.5719C3.14531 20.4969 2.75625 20.1078 2.68125 19.85C2.60156 19.5687 2.60156 4.8125 2.68125 4.53125C2.75625 4.27344 3.14531 3.88437 3.40313 3.80937C3.525 3.77656 3.90938 3.75312 4.425 3.75312H5.25V4.20312C5.25 4.45156 5.27344 4.74219 5.30625 4.85C5.38125 5.10781 5.77031 5.49687 6.02813 5.57187C6.17344 5.61406 7.03594 5.62812 9.38438 5.62812C12.9891 5.62812 12.8344 5.64219 13.1859 5.25312C13.4391 4.97187 13.5 4.77031 13.5 4.20312V3.75312H14.325C14.8406 3.75312 15.225 3.77656 15.3469 3.80937C15.6047 3.88437 15.9938 4.27344 16.0688 4.53125C16.1109 4.67656 16.125 5.49687 16.125 7.68594V10.6484L16.2422 10.7609C16.3922 10.9156 16.6078 10.9156 16.7625 10.7609L16.8797 10.6437L16.8656 7.53594L16.8516 4.42812L16.6781 4.07187C16.4672 3.64531 16.1953 3.38281 15.7594 3.17656L15.4453 3.02656L14.4281 3.0125L13.4156 2.99375L13.3594 2.85781C13.2797 2.66562 12.9328 2.375 12.7125 2.30937C12.6094 2.27656 12.2391 2.25312 11.8641 2.25312C11.3391 2.25312 11.2031 2.23906 11.2031 2.1875C11.2031 2.15469 11.1281 1.97656 11.0391 1.79844C10.7297 1.17969 10.1578 0.804688 9.47813 0.771873C9.28125 0.762499 9.0375 0.776562 8.93906 0.799999ZM9.72188 1.55937C10.1203 1.67656 10.5 2.19687 10.5 2.62344C10.5 2.72187 10.5422 2.81562 10.6172 2.88594C10.7297 3.00312 10.7391 3.00312 11.625 3.00312C12.5109 3.00312 12.5203 3.00312 12.6328 3.12031C12.7453 3.22812 12.75 3.25156 12.75 3.94062C12.75 4.62969 12.7453 4.65312 12.6328 4.76094L12.5203 4.87812H9.375H6.22969L6.11719 4.76094C6.00469 4.65312 6 4.62969 6 3.94062C6 3.25156 6.00469 3.22812 6.11719 3.12031C6.22969 3.00312 6.23906 3.00312 7.125 3.00312C8.01094 3.00312 8.02031 3.00312 8.13281 2.88594C8.20781 2.81562 8.25 2.72187 8.25 2.62344C8.25 2.33281 8.35781 2.09375 8.60156 1.85469C8.92969 1.52187 9.28125 1.43281 9.72188 1.55937Z" fill="#454545"/>
<path d="M4.24219 7.24219L4.125 7.35469V8.625V9.89531L4.24219 10.0078L4.35469 10.125H5.625H6.89531L7.00781 10.0078L7.125 9.89531V8.625V7.35469L7.00781 7.24219L6.89531 7.125H5.625H4.35469L4.24219 7.24219ZM6.375 8.625V9.375H5.625H4.875V8.625V7.875H5.625H6.375V8.625Z" fill="#454545"/>
<path d="M8.36719 7.24219C8.29219 7.3125 8.25 7.41094 8.25 7.5C8.25 7.58906 8.29219 7.6875 8.36719 7.75781L8.47969 7.875H11.4375H14.3953L14.5078 7.75781C14.5828 7.6875 14.625 7.58906 14.625 7.5C14.625 7.41094 14.5828 7.3125 14.5078 7.24219L14.3953 7.125H11.4375H8.47969L8.36719 7.24219Z" fill="#454545"/>
<path d="M8.36719 9.49219C8.29219 9.5625 8.25 9.66094 8.25 9.75C8.25 9.83906 8.29219 9.9375 8.36719 10.0078L8.47969 10.125H10.3125H12.1453L12.2578 10.0078C12.3328 9.9375 12.375 9.83906 12.375 9.75C12.375 9.66094 12.3328 9.5625 12.2578 9.49219L12.1453 9.375H10.3125H8.47969L8.36719 9.49219Z" fill="#454545"/>
<path d="M17.817 11.3247C16.7951 11.5966 16.1248 12.5013 16.1248 13.6028C16.1248 13.8044 16.1154 13.9684 16.1061 13.9684C16.0967 13.9684 15.9326 13.8934 15.7404 13.8044C15.2436 13.57 14.8029 13.4856 14.2264 13.5184C13.3076 13.57 12.6326 13.8513 12.0467 14.4325C11.4889 14.9856 11.1795 15.5809 10.9826 16.4856C10.8654 17.0013 10.8701 18.1591 10.9826 18.7028C11.5217 21.2341 13.4811 23.3763 15.1404 23.2356C15.5717 23.1981 15.8811 23.0903 16.2139 22.87L16.4998 22.6778L16.7858 22.87C17.4983 23.3434 18.342 23.3622 19.1717 22.9169C20.0623 22.4341 20.8498 21.5575 21.4311 20.3903C22.1061 19.0309 22.2889 17.5638 21.9561 16.2325C21.6889 15.1544 21.0514 14.3106 20.1889 13.8794C19.7014 13.6356 19.3639 13.5513 18.7733 13.5184C18.1967 13.4856 17.7561 13.57 17.2592 13.8044C17.067 13.8934 16.9029 13.9684 16.8889 13.9684C16.8748 13.9684 16.8701 13.7716 16.8842 13.5325C16.9076 13.0731 17.0154 12.7825 17.2686 12.4825C17.4514 12.2669 17.8967 12.0513 18.2389 12.0138C18.4592 11.9903 18.5623 11.9575 18.642 11.8778C18.7873 11.7325 18.7826 11.5122 18.6326 11.3669C18.4967 11.2263 18.2248 11.2169 17.817 11.3247ZM14.9154 14.3013C15.3045 14.3856 15.7029 14.5872 16.0451 14.8778C16.4576 15.2247 16.542 15.2247 16.9545 14.8778C17.7608 14.1934 18.8201 14.0622 19.7998 14.5216C20.1373 14.6809 20.6014 15.0934 20.8123 15.4216C21.5014 16.495 21.5483 18.1778 20.9295 19.6638C20.442 20.8497 19.5654 21.9044 18.7592 22.2981C18.4358 22.4528 18.3608 22.4716 18.0233 22.4763C17.5545 22.4763 17.3248 22.3778 16.9264 22.0122C16.5467 21.6606 16.4529 21.6606 16.0733 22.0122C15.6748 22.3778 15.4451 22.4763 14.9764 22.4763C14.6389 22.4716 14.5639 22.4528 14.2404 22.2981C13.8233 22.0966 13.2186 21.5575 12.8529 21.0559C11.7233 19.5138 11.3483 17.6575 11.8592 16.1388C12.0279 15.6231 12.2436 15.2809 12.5951 14.9528C13.1998 14.3856 14.1092 14.1325 14.9154 14.3013Z" fill="#454545"/>
<path d="M4.24219 11.7422L4.125 11.8547V13.125V14.3953L4.24219 14.5078L4.35469 14.625H5.625H6.89531L7.00781 14.5078L7.125 14.3953V13.125V11.8547L7.00781 11.7422L6.89531 11.625H5.625H4.35469L4.24219 11.7422ZM6.375 13.125V13.875H5.625H4.875V13.125V12.375H5.625H6.375V13.125Z" fill="#454545"/>
<path d="M8.36719 11.7422C8.29219 11.8125 8.25 11.9109 8.25 12C8.25 12.0891 8.29219 12.1875 8.36719 12.2578L8.47969 12.375H11.4375H14.3953L14.5078 12.2578C14.5828 12.1875 14.625 12.0891 14.625 12C14.625 11.9109 14.5828 11.8125 14.5078 11.7422L14.3953 11.625H11.4375H8.47969L8.36719 11.7422Z" fill="#454545"/>
<path d="M8.36719 13.9922C8.29219 14.0625 8.25 14.1609 8.25 14.25C8.25 14.3391 8.29219 14.4375 8.36719 14.5078L8.47969 14.625H9.5625H10.6453L10.7578 14.5078C10.8328 14.4375 10.875 14.3391 10.875 14.25C10.875 14.1609 10.8328 14.0625 10.7578 13.9922L10.6453 13.875H9.5625H8.47969L8.36719 13.9922Z" fill="#454545"/>
<path d="M4.24219 16.2422L4.125 16.3547V17.625V18.8953L4.24219 19.0078L4.35469 19.125H5.625H6.89531L7.00781 19.0078L7.125 18.8953V17.625V16.3547L7.00781 16.2422L6.89531 16.125H5.625H4.35469L4.24219 16.2422ZM6.375 17.625V18.375H5.625H4.875V17.625V16.875H5.625H6.375V17.625Z" fill="#454545"/>
<path d="M8.36719 16.2422C8.29219 16.3125 8.25 16.4109 8.25 16.5C8.25 16.5891 8.29219 16.6875 8.36719 16.7578C8.475 16.8703 8.49844 16.875 9.1875 16.875C9.87656 16.875 9.9 16.8703 10.0078 16.7578C10.0828 16.6875 10.125 16.5891 10.125 16.5C10.125 16.4109 10.0828 16.3125 10.0078 16.2422C9.9 16.1297 9.87656 16.125 9.1875 16.125C8.49844 16.125 8.475 16.1297 8.36719 16.2422Z" fill="#454545"/>
<path d="M8.36719 18.4922C8.29219 18.5625 8.25 18.6609 8.25 18.75C8.25 18.8391 8.29219 18.9375 8.36719 19.0078C8.475 19.1203 8.49844 19.125 9.1875 19.125C9.87656 19.125 9.9 19.1203 10.0078 19.0078C10.0828 18.9375 10.125 18.8391 10.125 18.75C10.125 18.6609 10.0828 18.5625 10.0078 18.4922C9.9 18.3797 9.87656 18.375 9.1875 18.375C8.49844 18.375 8.475 18.3797 8.36719 18.4922Z" fill="#454545"/>
</svg>
