<svg width="18" height="26" viewBox="0 0 18 26" fill="none" xmlns="http://www.w3.org/2000/svg">
<path d="M1 0.0996094H17C17.2387 0.0996094 17.4679 0.194499 17.6367 0.363281C17.8055 0.532064 17.9004 0.761305 17.9004 1C17.9004 1.2387 17.8055 1.46794 17.6367 1.63672C17.4679 1.8055 17.2387 1.90039 17 1.90039H10.1914L10.3721 2.07227C10.4693 2.16515 10.5642 2.26018 10.6562 2.35742C11.6355 3.41156 12.2712 4.73845 12.4795 6.16211L12.4922 6.24805H17C17.2387 6.24805 17.4679 6.34294 17.6367 6.51172C17.8054 6.68048 17.9004 6.90985 17.9004 7.14844C17.9003 7.38685 17.8052 7.61553 17.6367 7.78418C17.4679 7.95296 17.2387 8.04785 17 8.04785H12.5312L12.5215 8.1377C12.3582 9.64463 11.7426 11.1156 10.6562 12.2715C9.3607 13.6523 7.45071 14.5293 5 14.5293H3.31641L3.50586 14.7031L12.9404 23.3369L12.9434 23.3389C13.035 23.4172 13.1102 23.5132 13.1641 23.6211C13.218 23.7292 13.2494 23.8472 13.2568 23.9678C13.2642 24.0883 13.2473 24.2094 13.207 24.3232C13.1668 24.437 13.1039 24.5418 13.0225 24.6309C12.941 24.7199 12.8422 24.7916 12.7324 24.8418C12.6226 24.892 12.5035 24.9196 12.3828 24.9229C12.2622 24.9261 12.1416 24.9044 12.0293 24.8604C11.9171 24.8162 11.8146 24.7504 11.7285 24.666L11.7266 24.6631L0.392578 14.293C0.259498 14.1705 0.166906 14.0102 0.125977 13.834C0.0850932 13.6578 0.0975902 13.4733 0.163086 13.3047C0.228642 13.136 0.343945 12.9911 0.493164 12.8887C0.642384 12.7863 0.819054 12.7309 1 12.7305H5C6.99459 12.7305 8.41664 12.0304 9.34375 11.042V11.041C10.0819 10.2438 10.5579 9.23939 10.7061 8.16309L10.7217 8.0498H1C0.761324 8.0498 0.53206 7.95489 0.363281 7.78613C0.194517 7.61737 0.0996307 7.38808 0.0996094 7.14941C0.0996094 6.91074 0.194524 6.68147 0.363281 6.5127C0.532064 6.34391 0.761305 6.24902 1 6.24902H10.6689L10.6445 6.12891C10.4511 5.17995 10.001 4.30215 9.34375 3.59082V3.58984L9.16406 3.4082C8.23672 2.51774 6.87 1.90039 5 1.90039H1C0.761305 1.90039 0.532064 1.8055 0.363281 1.63672C0.194499 1.46794 0.0996094 1.23869 0.0996094 1C0.0996094 0.761305 0.194499 0.532064 0.363281 0.363281C0.532064 0.194499 0.761305 0.0996094 1 0.0996094Z" fill="#454545" stroke="#F2F2F2" stroke-width="0.2"/>
</svg>
