<svg width="24" height="24" viewBox="0 0 24 24" fill="none" xmlns="http://www.w3.org/2000/svg">
<path d="M7.66859 2.02051C7.42484 2.2127 7.40609 2.30176 7.40609 3.39863V4.40645H4.63109C1.95452 4.40645 1.84671 4.41113 1.7014 4.5002C1.34515 4.71582 1.31234 5.16582 1.64046 5.46113C1.7389 5.5502 1.82796 5.55488 4.56546 5.57832L7.38265 5.60176L7.40609 6.66582C7.42952 7.72051 7.42952 7.72988 7.54671 7.85176C7.79984 8.11895 8.04827 8.16582 8.32015 7.9877C8.55921 7.83301 8.56859 7.7627 8.57796 6.27676C8.58265 5.52207 8.58265 4.3127 8.58265 3.59082L8.57796 2.2877L8.39515 2.10488C8.24046 1.94551 8.18421 1.92207 8.00609 1.92207C7.86077 1.92207 7.75296 1.95488 7.66859 2.02051Z" fill="#454545"/>
<path d="M11.8125 4.43906C11.6297 4.50469 11.3906 4.82344 11.3906 4.99219C11.3906 5.14219 11.55 5.40469 11.6906 5.48906C11.8313 5.57344 12.0328 5.57812 17.0203 5.57812H22.2047L22.3313 5.47969C22.5938 5.27344 22.6594 4.96406 22.5 4.70156C22.3125 4.3875 22.6641 4.40625 17.0063 4.41094C14.1891 4.41094 11.85 4.425 11.8125 4.43906Z" fill="#454545"/>
<path d="M15.7171 9.00012C15.403 9.18762 15.4171 9.03762 15.4171 12.0001C15.4171 14.9626 15.403 14.8126 15.7171 15.0001C15.9936 15.1689 16.3077 15.0845 16.5046 14.7845C16.5843 14.6626 16.5936 14.5501 16.5936 13.6267V12.6095H19.3358C22.3077 12.6095 22.2046 12.6189 22.453 12.3517C22.5468 12.2532 22.5702 12.1782 22.5702 12.0001C22.5702 11.822 22.5468 11.747 22.453 11.6486C22.2046 11.3814 22.3077 11.3907 19.3358 11.3907H16.5936V10.3689C16.5936 9.44074 16.5843 9.33762 16.4999 9.20168C16.3265 8.91574 15.9936 8.83137 15.7171 9.00012Z" fill="#454545"/>
<path d="M1.75781 11.4796C1.50469 11.6343 1.42969 11.7561 1.42969 11.9999C1.42969 12.178 1.45781 12.253 1.54688 12.3514C1.8 12.6233 1.48594 12.6093 6.99375 12.6093C11.7328 12.6093 12.0797 12.6046 12.2297 12.5249C12.7031 12.2858 12.7031 11.7139 12.2297 11.4749C12.0797 11.3952 11.7328 11.3905 6.98438 11.3905C2.11406 11.3905 1.89375 11.3952 1.75781 11.4796Z" fill="#454545"/>
<path d="M7.75765 15.975C7.42952 16.1859 7.43421 16.1672 7.40608 17.3391L7.38265 18.3984L4.56546 18.4219C1.82796 18.4453 1.7389 18.45 1.64046 18.5391C1.31234 18.8344 1.34515 19.2844 1.7014 19.5C1.84671 19.5891 1.95452 19.5938 4.63109 19.5938H7.40608V20.6016C7.40608 21.6984 7.42483 21.7875 7.66858 21.9797C7.75296 22.0453 7.86077 22.0781 8.00608 22.0781C8.18421 22.0781 8.24046 22.0547 8.39515 21.8953L8.57796 21.7125L8.58265 20.4094C8.59202 17.325 8.57327 16.3453 8.50765 16.2188C8.36702 15.9422 7.99671 15.825 7.75765 15.975Z" fill="#454545"/>
<path d="M11.6906 18.5136C11.55 18.5979 11.3906 18.8604 11.3906 19.0104C11.3906 19.1229 11.5078 19.3245 11.6484 19.4557L11.775 19.5729L16.9359 19.587C22.6828 19.6011 22.2938 19.6245 22.5 19.2917C22.6594 19.0339 22.5938 18.7292 22.3313 18.5229L22.2047 18.4245H17.0203C12.0328 18.4245 11.8313 18.4292 11.6906 18.5136Z" fill="#454545"/>
</svg>
