<svg width="16" height="16" viewBox="0 0 16 16" fill="none" xmlns="http://www.w3.org/2000/svg">
<g clip-path="url(#clip0_8389_5513)">
<path d="M12 1.40039C13.4359 1.40039 14.5996 2.56406 14.5996 4V12C14.5996 13.4359 13.4359 14.5996 12 14.5996H4C2.56406 14.5996 1.40039 13.4359 1.40039 12V4C1.40039 2.56406 2.56406 1.40039 4 1.40039H12Z" fill="#2BB938" fill-opacity="0.16" stroke="#018D0E" stroke-width="1.2"/>
<path d="M7.99956 10.2179C9.22686 10.2179 10.2218 9.22296 10.2218 7.99566C10.2218 6.76836 9.22686 5.77344 7.99956 5.77344C6.77227 5.77344 5.77734 6.76836 5.77734 7.99566C5.77734 9.22296 6.77227 10.2179 7.99956 10.2179Z" fill="#018D0E"/>
</g>
<defs>
<clipPath id="clip0_8389_5513">
<rect width="16" height="16" fill="white"/>
</clipPath>
</defs>
</svg>
